solid OpenSCAD_Model
  facet normal -1 0 0
    outer loop
      vertex 0 0 0
      vertex 0 8.5 41.25
      vertex 0 8.5 0
    endloop
  endfacet
  facet normal -1 -0 0
    outer loop
      vertex 0 8.5 41.25
      vertex 0 0 0
      vertex 0 0 41.25
    endloop
  endfacet
  facet normal -0 0 1
    outer loop
      vertex 0 8.5 41.25
      vertex 30.5 0 41.25
      vertex 30.5 8.5 41.25
    endloop
  endfacet
  facet normal 0 0 1
    outer loop
      vertex 30.5 0 41.25
      vertex 0 8.5 41.25
      vertex 0 0 41.25
    endloop
  endfacet
  facet normal 1 -0 0
    outer loop
      vertex 30.5 0 41.25
      vertex 30.5 8.5 0
      vertex 30.5 8.5 41.25
    endloop
  endfacet
  facet normal 1 0 0
    outer loop
      vertex 30.5 8.5 0
      vertex 30.5 0 41.25
      vertex 30.5 0 0
    endloop
  endfacet
  facet normal 0 1 -0
    outer loop
      vertex 22.875 8.5 0
      vertex 7.625 8.5 30.9375
      vertex 22.875 8.5 30.9375
    endloop
  endfacet
  facet normal 0 1 0
    outer loop
      vertex 7.625 8.5 30.9375
      vertex 22.875 8.5 0
      vertex 7.625 8.5 0
    endloop
  endfacet
  facet normal 0 1 0
    outer loop
      vertex 22.875 8.5 30.9375
      vertex 30.5 8.5 41.25
      vertex 23.875 8.5 30.9375
    endloop
  endfacet
  facet normal 0 1 -0
    outer loop
      vertex 30.5 8.5 0
      vertex 23.875 8.5 30.9375
      vertex 30.5 8.5 41.25
    endloop
  endfacet
  facet normal 0 1 0
    outer loop
      vertex 23.875 8.5 30.9375
      vertex 30.5 8.5 0
      vertex 23.875 8.5 0
    endloop
  endfacet
  facet normal 0 1 0
    outer loop
      vertex 30.5 8.5 41.25
      vertex 22.875 8.5 30.9375
      vertex 0 8.5 41.25
    endloop
  endfacet
  facet normal 0 1 -0
    outer loop
      vertex 7.625 8.5 30.9375
      vertex 0 8.5 41.25
      vertex 22.875 8.5 30.9375
    endloop
  endfacet
  facet normal 0 1 -0
    outer loop
      vertex 6.625 8.5 30.9375
      vertex 0 8.5 41.25
      vertex 7.625 8.5 30.9375
    endloop
  endfacet
  facet normal 0 1 0
    outer loop
      vertex 0 8.5 0
      vertex 6.625 8.5 30.9375
      vertex 6.625 8.5 0
    endloop
  endfacet
  facet normal 0 1 0
    outer loop
      vertex 6.625 8.5 30.9375
      vertex 0 8.5 0
      vertex 0 8.5 41.25
    endloop
  endfacet
  facet normal 0 0 -1
    outer loop
      vertex 6.625 0 0
      vertex 1.5 1.5 0
      vertex 6.625 1.5 0
    endloop
  endfacet
  facet normal -0 0 -1
    outer loop
      vertex 1.5 1.5 0
      vertex 0 0 0
      vertex 1.5 7 0
    endloop
  endfacet
  facet normal 0 0 -1
    outer loop
      vertex 0 0 0
      vertex 1.5 1.5 0
      vertex 6.625 0 0
    endloop
  endfacet
  facet normal 0 0 -1
    outer loop
      vertex 1.5 7 0
      vertex 6.625 8.5 0
      vertex 6.625 7 0
    endloop
  endfacet
  facet normal 0 0 -1
    outer loop
      vertex 1.5 7 0
      vertex 0 8.5 0
      vertex 6.625 8.5 0
    endloop
  endfacet
  facet normal 0 0 -1
    outer loop
      vertex 0 8.5 0
      vertex 1.5 7 0
      vertex 0 0 0
    endloop
  endfacet
  facet normal 0 0 -1
    outer loop
      vertex 30.5 0 0
      vertex 29 1.5 0
      vertex 30.5 8.5 0
    endloop
  endfacet
  facet normal 0 0 -1
    outer loop
      vertex 23.875 0 0
      vertex 29 1.5 0
      vertex 30.5 0 0
    endloop
  endfacet
  facet normal -0 0 -1
    outer loop
      vertex 29 1.5 0
      vertex 23.875 0 0
      vertex 23.875 1.5 0
    endloop
  endfacet
  facet normal 0 0 -1
    outer loop
      vertex 29 7 0
      vertex 30.5 8.5 0
      vertex 29 1.5 0
    endloop
  endfacet
  facet normal 0 0 -1
    outer loop
      vertex 23.875 8.5 0
      vertex 29 7 0
      vertex 23.875 7 0
    endloop
  endfacet
  facet normal 0 0 -1
    outer loop
      vertex 29 7 0
      vertex 23.875 8.5 0
      vertex 30.5 8.5 0
    endloop
  endfacet
  facet normal 0 0 -1
    outer loop
      vertex 7.625 0 0
      vertex 22.875 1.5 0
      vertex 22.875 0 0
    endloop
  endfacet
  facet normal -0 0 -1
    outer loop
      vertex 22.875 1.5 0
      vertex 7.625 0 0
      vertex 7.625 1.5 0
    endloop
  endfacet
  facet normal 0 0 -1
    outer loop
      vertex 7.625 7 0
      vertex 22.875 8.5 0
      vertex 22.875 7 0
    endloop
  endfacet
  facet normal -0 0 -1
    outer loop
      vertex 22.875 8.5 0
      vertex 7.625 7 0
      vertex 7.625 8.5 0
    endloop
  endfacet
  facet normal 0 -1 0
    outer loop
      vertex 7.625 0 0
      vertex 22.875 0 30.9375
      vertex 7.625 0 30.9375
    endloop
  endfacet
  facet normal 0 -1 -0
    outer loop
      vertex 22.875 0 30.9375
      vertex 7.625 0 0
      vertex 22.875 0 0
    endloop
  endfacet
  facet normal 0 -1 0
    outer loop
      vertex 7.625 0 30.9375
      vertex 0 0 41.25
      vertex 6.625 0 30.9375
    endloop
  endfacet
  facet normal 0 -1 0
    outer loop
      vertex 0 0 0
      vertex 6.625 0 30.9375
      vertex 0 0 41.25
    endloop
  endfacet
  facet normal 0 -1 -0
    outer loop
      vertex 6.625 0 30.9375
      vertex 0 0 0
      vertex 6.625 0 0
    endloop
  endfacet
  facet normal 0 -1 0
    outer loop
      vertex 0 0 41.25
      vertex 7.625 0 30.9375
      vertex 30.5 0 41.25
    endloop
  endfacet
  facet normal 0 -1 0
    outer loop
      vertex 22.875 0 30.9375
      vertex 30.5 0 41.25
      vertex 7.625 0 30.9375
    endloop
  endfacet
  facet normal 0 -1 0
    outer loop
      vertex 23.875 0 30.9375
      vertex 30.5 0 41.25
      vertex 22.875 0 30.9375
    endloop
  endfacet
  facet normal 0 -1 0
    outer loop
      vertex 30.5 0 0
      vertex 23.875 0 30.9375
      vertex 23.875 0 0
    endloop
  endfacet
  facet normal 0 -1 0
    outer loop
      vertex 23.875 0 30.9375
      vertex 30.5 0 0
      vertex 30.5 0 41.25
    endloop
  endfacet
  facet normal 1 -0 0
    outer loop
      vertex 1.5 1.5 39.75
      vertex 1.5 7 0
      vertex 1.5 7 39.75
    endloop
  endfacet
  facet normal 1 0 0
    outer loop
      vertex 1.5 7 0
      vertex 1.5 1.5 39.75
      vertex 1.5 1.5 0
    endloop
  endfacet
  facet normal 0 0 -1
    outer loop
      vertex 1.5 1.5 39.75
      vertex 29 7 39.75
      vertex 29 1.5 39.75
    endloop
  endfacet
  facet normal -0 0 -1
    outer loop
      vertex 29 7 39.75
      vertex 1.5 1.5 39.75
      vertex 1.5 7 39.75
    endloop
  endfacet
  facet normal -1 0 0
    outer loop
      vertex 29 1.5 0
      vertex 29 7 39.75
      vertex 29 7 0
    endloop
  endfacet
  facet normal -1 -0 0
    outer loop
      vertex 29 7 39.75
      vertex 29 1.5 0
      vertex 29 1.5 39.75
    endloop
  endfacet
  facet normal 0 1 0
    outer loop
      vertex 22.875 1.5 0.00394726
      vertex 22.875 1.5 0
      vertex 11.6171 1.5 0.00394726
    endloop
  endfacet
  facet normal 0 1 -0
    outer loop
      vertex 22.875 1.5 3.99605
      vertex 7.625 1.5 30.9375
      vertex 22.875 1.5 30.9375
    endloop
  endfacet
  facet normal 0 1 0
    outer loop
      vertex 7.625 1.5 30.9375
      vertex 22.875 1.5 3.99605
      vertex 7.625 1.5 3.99605
    endloop
  endfacet
  facet normal 0 1 0
    outer loop
      vertex 22.875 1.5 30.9375
      vertex 29 1.5 39.75
      vertex 23.875 1.5 30.9375
    endloop
  endfacet
  facet normal 0 1 -0
    outer loop
      vertex 29 1.5 0
      vertex 23.875 1.5 30.9375
      vertex 29 1.5 39.75
    endloop
  endfacet
  facet normal 0 1 0
    outer loop
      vertex 23.875 1.5 30.9375
      vertex 29 1.5 0
      vertex 23.875 1.5 0
    endloop
  endfacet
  facet normal 0 1 0
    outer loop
      vertex 29 1.5 39.75
      vertex 22.875 1.5 30.9375
      vertex 1.5 1.5 39.75
    endloop
  endfacet
  facet normal 0 1 -0
    outer loop
      vertex 7.625 1.5 30.9375
      vertex 1.5 1.5 39.75
      vertex 22.875 1.5 30.9375
    endloop
  endfacet
  facet normal 0 1 -0
    outer loop
      vertex 6.625 1.5 30.9375
      vertex 1.5 1.5 39.75
      vertex 7.625 1.5 30.9375
    endloop
  endfacet
  facet normal 0 1 0
    outer loop
      vertex 1.5 1.5 0
      vertex 6.625 1.5 30.9375
      vertex 6.625 1.5 0
    endloop
  endfacet
  facet normal 0 1 0
    outer loop
      vertex 6.625 1.5 30.9375
      vertex 1.5 1.5 0
      vertex 1.5 1.5 39.75
    endloop
  endfacet
  facet normal 0 1 0
    outer loop
      vertex 11.6171 1.5 0.00394726
      vertex 7.625 1.5 0
      vertex 7.625 1.5 2
    endloop
  endfacet
  facet normal 0 1 0
    outer loop
      vertex 7.625 1.5 0
      vertex 11.6171 1.5 0.00394726
      vertex 22.875 1.5 0
    endloop
  endfacet
  facet normal 0 0 0
    outer loop
      vertex 7.625 1.5 30.9375
      vertex 7.625 1.5 3.99605
      vertex 7.625 1.5 2
    endloop
  endfacet
  facet normal 0 0 0
    outer loop
      vertex 22.875 1.5 3.99605
      vertex 22.875 1.5 30.9375
      vertex 22.875 1.5 0
    endloop
  endfacet
  facet normal 0 0 0
    outer loop
      vertex 22.875 1.5 3.99605
      vertex 22.875 1.5 0
      vertex 22.875 1.5 0.00394726
    endloop
  endfacet
  facet normal 0 0 0
    outer loop
      vertex 7.625 1.5 2
      vertex 7.625 1.5 0
      vertex 7.625 1.5 30.9375
    endloop
  endfacet
  facet normal 0 -1 0
    outer loop
      vertex 7.625 7 0
      vertex 22.875 7 30.9375
      vertex 7.625 7 30.9375
    endloop
  endfacet
  facet normal 0 -1 -0
    outer loop
      vertex 22.875 7 30.9375
      vertex 7.625 7 0
      vertex 22.875 7 0
    endloop
  endfacet
  facet normal 0 -1 0
    outer loop
      vertex 7.625 7 30.9375
      vertex 1.5 7 39.75
      vertex 6.625 7 30.9375
    endloop
  endfacet
  facet normal 0 -1 0
    outer loop
      vertex 1.5 7 0
      vertex 6.625 7 30.9375
      vertex 1.5 7 39.75
    endloop
  endfacet
  facet normal 0 -1 -0
    outer loop
      vertex 6.625 7 30.9375
      vertex 1.5 7 0
      vertex 6.625 7 0
    endloop
  endfacet
  facet normal 0 -1 0
    outer loop
      vertex 1.5 7 39.75
      vertex 7.625 7 30.9375
      vertex 29 7 39.75
    endloop
  endfacet
  facet normal 0 -1 0
    outer loop
      vertex 22.875 7 30.9375
      vertex 29 7 39.75
      vertex 7.625 7 30.9375
    endloop
  endfacet
  facet normal 0 -1 0
    outer loop
      vertex 23.875 7 30.9375
      vertex 29 7 39.75
      vertex 22.875 7 30.9375
    endloop
  endfacet
  facet normal 0 -1 0
    outer loop
      vertex 29 7 0
      vertex 23.875 7 30.9375
      vertex 23.875 7 0
    endloop
  endfacet
  facet normal 0 -1 0
    outer loop
      vertex 23.875 7 30.9375
      vertex 29 7 0
      vertex 29 7 39.75
    endloop
  endfacet
  facet normal 1 -0 0
    outer loop
      vertex 6.625 0 30.9375
      vertex 6.625 1.5 0
      vertex 6.625 1.5 30.9375
    endloop
  endfacet
  facet normal 1 0 0
    outer loop
      vertex 6.625 1.5 0
      vertex 6.625 0 30.9375
      vertex 6.625 0 0
    endloop
  endfacet
  facet normal 1 -0 0
    outer loop
      vertex 6.625 7 30.9375
      vertex 6.625 8.5 0
      vertex 6.625 8.5 30.9375
    endloop
  endfacet
  facet normal 1 0 0
    outer loop
      vertex 6.625 8.5 0
      vertex 6.625 7 30.9375
      vertex 6.625 7 0
    endloop
  endfacet
  facet normal 0 0 -1
    outer loop
      vertex 6.625 0 30.9375
      vertex 7.625 1.5 30.9375
      vertex 7.625 0 30.9375
    endloop
  endfacet
  facet normal -0 0 -1
    outer loop
      vertex 7.625 1.5 30.9375
      vertex 6.625 0 30.9375
      vertex 6.625 1.5 30.9375
    endloop
  endfacet
  facet normal 0 0 -1
    outer loop
      vertex 6.625 7 30.9375
      vertex 7.625 8.5 30.9375
      vertex 7.625 7 30.9375
    endloop
  endfacet
  facet normal -0 0 -1
    outer loop
      vertex 7.625 8.5 30.9375
      vertex 6.625 7 30.9375
      vertex 6.625 8.5 30.9375
    endloop
  endfacet
  facet normal -1 0 0
    outer loop
      vertex 7.625 0 0
      vertex 7.625 1.5 30.9375
      vertex 7.625 1.5 0
    endloop
  endfacet
  facet normal -1 -0 0
    outer loop
      vertex 7.625 1.5 30.9375
      vertex 7.625 0 0
      vertex 7.625 0 30.9375
    endloop
  endfacet
  facet normal -1 0 0
    outer loop
      vertex 7.625 7 0
      vertex 7.625 8.5 30.9375
      vertex 7.625 8.5 0
    endloop
  endfacet
  facet normal -1 -0 0
    outer loop
      vertex 7.625 8.5 30.9375
      vertex 7.625 7 0
      vertex 7.625 7 30.9375
    endloop
  endfacet
  facet normal 1 -0 0
    outer loop
      vertex 22.875 0 30.9375
      vertex 22.875 1.5 0
      vertex 22.875 1.5 30.9375
    endloop
  endfacet
  facet normal 1 0 0
    outer loop
      vertex 22.875 1.5 0
      vertex 22.875 0 30.9375
      vertex 22.875 0 0
    endloop
  endfacet
  facet normal 1 -0 0
    outer loop
      vertex 22.875 7 30.9375
      vertex 22.875 8.5 0
      vertex 22.875 8.5 30.9375
    endloop
  endfacet
  facet normal 1 0 0
    outer loop
      vertex 22.875 8.5 0
      vertex 22.875 7 30.9375
      vertex 22.875 7 0
    endloop
  endfacet
  facet normal 0 0 -1
    outer loop
      vertex 22.875 0 30.9375
      vertex 23.875 1.5 30.9375
      vertex 23.875 0 30.9375
    endloop
  endfacet
  facet normal -0 0 -1
    outer loop
      vertex 23.875 1.5 30.9375
      vertex 22.875 0 30.9375
      vertex 22.875 1.5 30.9375
    endloop
  endfacet
  facet normal 0 0 -1
    outer loop
      vertex 22.875 7 30.9375
      vertex 23.875 8.5 30.9375
      vertex 23.875 7 30.9375
    endloop
  endfacet
  facet normal -0 0 -1
    outer loop
      vertex 23.875 8.5 30.9375
      vertex 22.875 7 30.9375
      vertex 22.875 8.5 30.9375
    endloop
  endfacet
  facet normal -1 0 0
    outer loop
      vertex 23.875 0 0
      vertex 23.875 1.5 30.9375
      vertex 23.875 1.5 0
    endloop
  endfacet
  facet normal -1 -0 0
    outer loop
      vertex 23.875 1.5 30.9375
      vertex 23.875 0 0
      vertex 23.875 0 30.9375
    endloop
  endfacet
  facet normal -1 0 0
    outer loop
      vertex 23.875 7 0
      vertex 23.875 8.5 30.9375
      vertex 23.875 8.5 0
    endloop
  endfacet
  facet normal -1 -0 0
    outer loop
      vertex 23.875 8.5 30.9375
      vertex 23.875 7 0
      vertex 23.875 7 30.9375
    endloop
  endfacet
  facet normal 0 0.998027 -0.062792
    outer loop
      vertex 22.875 3.48423 1.74933
      vertex 7.625 3.5 2
      vertex 22.875 3.5 2
    endloop
  endfacet
  facet normal 0 0.998027 -0.062792
    outer loop
      vertex 7.625 3.5 2
      vertex 22.875 3.48423 1.74933
      vertex 7.625 3.48423 1.74933
    endloop
  endfacet
  facet normal 0 0 -1
    outer loop
      vertex 11.6171 1.5 0.00394726
      vertex 22.875 1.62558 0.00394726
      vertex 22.875 1.5 0.00394726
    endloop
  endfacet
  facet normal 0 0 -1
    outer loop
      vertex 7.625 1.62558 0.00394726
      vertex 11.6171 1.5 0.00394726
      vertex 7.625 1.5 0.00394726
    endloop
  endfacet
  facet normal 0 0 -1
    outer loop
      vertex 11.6171 1.5 0.00394726
      vertex 7.625 1.62558 0.00394726
      vertex 22.875 1.62558 0.00394726
    endloop
  endfacet
  facet normal -0 0 1
    outer loop
      vertex 7.625 1.62558 3.99605
      vertex 22.875 1.5 3.99605
      vertex 22.875 1.62558 3.99605
    endloop
  endfacet
  facet normal 0 0 1
    outer loop
      vertex 22.875 1.5 3.99605
      vertex 7.625 1.62558 3.99605
      vertex 7.625 1.5 3.99605
    endloop
  endfacet
  facet normal 0 0.684545 -0.72897
    outer loop
      vertex 7.625 2.77485 0.458974
      vertex 22.875 2.95794 0.630906
      vertex 22.875 2.77485 0.458974
    endloop
  endfacet
  facet normal 0 0.684545 -0.72897
    outer loop
      vertex 22.875 2.95794 0.630906
      vertex 7.625 2.77485 0.458974
      vertex 7.625 2.95794 0.630906
    endloop
  endfacet
  facet normal 0 0.368128 -0.929775
    outer loop
      vertex 7.625 2.11803 0.097887
      vertex 22.875 2.35156 0.190347
      vertex 22.875 2.11803 0.097887
    endloop
  endfacet
  facet normal 0 0.368128 -0.929775
    outer loop
      vertex 22.875 2.35156 0.190347
      vertex 7.625 2.11803 0.097887
      vertex 7.625 2.35156 0.190347
    endloop
  endfacet
  facet normal 0 0.904827 -0.425779
    outer loop
      vertex 22.875 3.25261 1.03649
      vertex 7.625 3.35955 1.26375
      vertex 22.875 3.35955 1.26375
    endloop
  endfacet
  facet normal 0 0.904827 -0.425779
    outer loop
      vertex 7.625 3.35955 1.26375
      vertex 22.875 3.25261 1.03649
      vertex 7.625 3.25261 1.03649
    endloop
  endfacet
  facet normal 0 0.844328 -0.535826
    outer loop
      vertex 22.875 3.11803 0.82443
      vertex 7.625 3.25261 1.03649
      vertex 22.875 3.25261 1.03649
    endloop
  endfacet
  facet normal 0 0.844328 -0.535826
    outer loop
      vertex 7.625 3.25261 1.03649
      vertex 22.875 3.11803 0.82443
      vertex 7.625 3.11803 0.82443
    endloop
  endfacet
  facet normal 0 0.951056 -0.309018
    outer loop
      vertex 22.875 3.35955 1.26375
      vertex 7.625 3.43717 1.50262
      vertex 22.875 3.43717 1.50262
    endloop
  endfacet
  facet normal 0 0.951056 -0.309018
    outer loop
      vertex 7.625 3.43717 1.50262
      vertex 22.875 3.35955 1.26375
      vertex 7.625 3.35955 1.26375
    endloop
  endfacet
  facet normal 0 0.481753 -0.876307
    outer loop
      vertex 7.625 2.35156 0.190347
      vertex 22.875 2.57165 0.311345
      vertex 22.875 2.35156 0.190347
    endloop
  endfacet
  facet normal 0 0.481753 -0.876307
    outer loop
      vertex 22.875 2.57165 0.311345
      vertex 7.625 2.35156 0.190347
      vertex 7.625 2.57165 0.311345
    endloop
  endfacet
  facet normal 0 0.248688 -0.968584
    outer loop
      vertex 7.625 1.87476 0.0354261
      vertex 22.875 2.11803 0.097887
      vertex 22.875 1.87476 0.0354261
    endloop
  endfacet
  facet normal 0 0.248688 -0.968584
    outer loop
      vertex 22.875 2.11803 0.097887
      vertex 7.625 1.87476 0.0354261
      vertex 7.625 2.11803 0.097887
    endloop
  endfacet
  facet normal 0 0.982287 -0.18738
    outer loop
      vertex 22.875 3.43717 1.50262
      vertex 7.625 3.48423 1.74933
      vertex 22.875 3.48423 1.74933
    endloop
  endfacet
  facet normal 0 0.982287 -0.18738
    outer loop
      vertex 7.625 3.48423 1.74933
      vertex 22.875 3.43717 1.50262
      vertex 7.625 3.43717 1.50262
    endloop
  endfacet
  facet normal 1 0 0
    outer loop
      vertex 22.875 3.48423 2.25067
      vertex 22.875 3.48423 1.74933
      vertex 22.875 3.5 2
    endloop
  endfacet
  facet normal 1 0 0
    outer loop
      vertex 22.875 3.43717 2.49738
      vertex 22.875 3.48423 1.74933
      vertex 22.875 3.48423 2.25067
    endloop
  endfacet
  facet normal 1 0 0
    outer loop
      vertex 22.875 3.43717 2.49738
      vertex 22.875 3.43717 1.50262
      vertex 22.875 3.48423 1.74933
    endloop
  endfacet
  facet normal 1 0 0
    outer loop
      vertex 22.875 3.35955 2.73625
      vertex 22.875 3.43717 1.50262
      vertex 22.875 3.43717 2.49738
    endloop
  endfacet
  facet normal 1 0 0
    outer loop
      vertex 22.875 3.35955 2.73625
      vertex 22.875 3.35955 1.26375
      vertex 22.875 3.43717 1.50262
    endloop
  endfacet
  facet normal 1 0 0
    outer loop
      vertex 22.875 3.25261 2.96351
      vertex 22.875 3.35955 1.26375
      vertex 22.875 3.35955 2.73625
    endloop
  endfacet
  facet normal 1 0 0
    outer loop
      vertex 22.875 3.25261 2.96351
      vertex 22.875 3.25261 1.03649
      vertex 22.875 3.35955 1.26375
    endloop
  endfacet
  facet normal 1 0 0
    outer loop
      vertex 22.875 3.11803 3.17557
      vertex 22.875 3.25261 1.03649
      vertex 22.875 3.25261 2.96351
    endloop
  endfacet
  facet normal 1 0 0
    outer loop
      vertex 22.875 3.11803 3.17557
      vertex 22.875 3.11803 0.82443
      vertex 22.875 3.25261 1.03649
    endloop
  endfacet
  facet normal 1 0 0
    outer loop
      vertex 22.875 2.95794 3.36909
      vertex 22.875 3.11803 0.82443
      vertex 22.875 3.11803 3.17557
    endloop
  endfacet
  facet normal 1 0 0
    outer loop
      vertex 22.875 2.95794 3.36909
      vertex 22.875 2.95794 0.630906
      vertex 22.875 3.11803 0.82443
    endloop
  endfacet
  facet normal 1 0 0
    outer loop
      vertex 22.875 2.77485 3.54103
      vertex 22.875 2.95794 0.630906
      vertex 22.875 2.95794 3.36909
    endloop
  endfacet
  facet normal 1 0 0
    outer loop
      vertex 22.875 2.77485 3.54103
      vertex 22.875 2.77485 0.458974
      vertex 22.875 2.95794 0.630906
    endloop
  endfacet
  facet normal 1 0 0
    outer loop
      vertex 22.875 2.57165 3.68865
      vertex 22.875 2.77485 0.458974
      vertex 22.875 2.77485 3.54103
    endloop
  endfacet
  facet normal 1 0 0
    outer loop
      vertex 22.875 2.57165 3.68865
      vertex 22.875 2.57165 0.311345
      vertex 22.875 2.77485 0.458974
    endloop
  endfacet
  facet normal 1 0 0
    outer loop
      vertex 22.875 2.35156 3.80965
      vertex 22.875 2.57165 0.311345
      vertex 22.875 2.57165 3.68865
    endloop
  endfacet
  facet normal 1 0 0
    outer loop
      vertex 22.875 2.35156 3.80965
      vertex 22.875 2.35156 0.190347
      vertex 22.875 2.57165 0.311345
    endloop
  endfacet
  facet normal 1 0 0
    outer loop
      vertex 22.875 2.11803 3.90211
      vertex 22.875 2.35156 0.190347
      vertex 22.875 2.35156 3.80965
    endloop
  endfacet
  facet normal 1 0 0
    outer loop
      vertex 22.875 2.11803 3.90211
      vertex 22.875 2.11803 0.097887
      vertex 22.875 2.35156 0.190347
    endloop
  endfacet
  facet normal 1 0 0
    outer loop
      vertex 22.875 1.5 3.99605
      vertex 22.875 2.11803 3.90211
      vertex 22.875 1.87476 3.96457
    endloop
  endfacet
  facet normal 1 0 0
    outer loop
      vertex 22.875 2.11803 3.90211
      vertex 22.875 1.5 3.99605
      vertex 22.875 2.11803 0.097887
    endloop
  endfacet
  facet normal 1 -0 0
    outer loop
      vertex 22.875 1.5 3.99605
      vertex 22.875 1.87476 3.96457
      vertex 22.875 1.62558 3.99605
    endloop
  endfacet
  facet normal 1 0 0
    outer loop
      vertex 22.875 1.5 0.00394726
      vertex 22.875 2.11803 0.097887
      vertex 22.875 1.5 3.99605
    endloop
  endfacet
  facet normal 1 0 0
    outer loop
      vertex 22.875 2.11803 0.097887
      vertex 22.875 1.5 0.00394726
      vertex 22.875 1.87476 0.0354261
    endloop
  endfacet
  facet normal 1 0 0
    outer loop
      vertex 22.875 1.87476 0.0354261
      vertex 22.875 1.5 0.00394726
      vertex 22.875 1.62558 0.00394726
    endloop
  endfacet
  facet normal 0 0.587785 -0.809017
    outer loop
      vertex 7.625 2.57165 0.311345
      vertex 22.875 2.77485 0.458974
      vertex 22.875 2.57165 0.311345
    endloop
  endfacet
  facet normal 0 0.587785 -0.809017
    outer loop
      vertex 22.875 2.77485 0.458974
      vertex 7.625 2.57165 0.311345
      vertex 7.625 2.77485 0.458974
    endloop
  endfacet
  facet normal 0 0.125333 -0.992115
    outer loop
      vertex 7.625 1.62558 0.00394726
      vertex 22.875 1.87476 0.0354261
      vertex 22.875 1.62558 0.00394726
    endloop
  endfacet
  facet normal 0 0.125333 -0.992115
    outer loop
      vertex 22.875 1.87476 0.0354261
      vertex 7.625 1.62558 0.00394726
      vertex 7.625 1.87476 0.0354261
    endloop
  endfacet
  facet normal -0 0.684545 0.72897
    outer loop
      vertex 7.625 2.95794 3.36909
      vertex 22.875 2.77485 3.54103
      vertex 22.875 2.95794 3.36909
    endloop
  endfacet
  facet normal 0 0.684545 0.72897
    outer loop
      vertex 22.875 2.77485 3.54103
      vertex 7.625 2.95794 3.36909
      vertex 7.625 2.77485 3.54103
    endloop
  endfacet
  facet normal 0 0.904827 0.425779
    outer loop
      vertex 22.875 3.35955 2.73625
      vertex 7.625 3.25261 2.96351
      vertex 22.875 3.25261 2.96351
    endloop
  endfacet
  facet normal 0 0.904827 0.425779
    outer loop
      vertex 7.625 3.25261 2.96351
      vertex 22.875 3.35955 2.73625
      vertex 7.625 3.35955 2.73625
    endloop
  endfacet
  facet normal -1 0 0
    outer loop
      vertex 7.625 1.5 2
      vertex 7.625 3.5 2
      vertex 7.625 3.48423 1.74933
    endloop
  endfacet
  facet normal -1 0 0
    outer loop
      vertex 7.625 1.5 2
      vertex 7.625 3.48423 1.74933
      vertex 7.625 3.43717 1.50262
    endloop
  endfacet
  facet normal -1 0 0
    outer loop
      vertex 7.625 3.5 2
      vertex 7.625 1.5 2
      vertex 7.625 3.48423 2.25067
    endloop
  endfacet
  facet normal -1 0 0
    outer loop
      vertex 7.625 1.5 2
      vertex 7.625 3.43717 1.50262
      vertex 7.625 3.35955 1.26375
    endloop
  endfacet
  facet normal -1 -0 0
    outer loop
      vertex 7.625 3.48423 2.25067
      vertex 7.625 1.5 2
      vertex 7.625 3.43717 2.49738
    endloop
  endfacet
  facet normal -1 0 0
    outer loop
      vertex 7.625 1.5 2
      vertex 7.625 3.35955 1.26375
      vertex 7.625 3.25261 1.03649
    endloop
  endfacet
  facet normal -1 -0 0
    outer loop
      vertex 7.625 3.43717 2.49738
      vertex 7.625 1.5 2
      vertex 7.625 3.35955 2.73625
    endloop
  endfacet
  facet normal -1 0 0
    outer loop
      vertex 7.625 1.5 2
      vertex 7.625 3.25261 1.03649
      vertex 7.625 3.11803 0.82443
    endloop
  endfacet
  facet normal -1 -0 0
    outer loop
      vertex 7.625 3.35955 2.73625
      vertex 7.625 1.5 2
      vertex 7.625 3.25261 2.96351
    endloop
  endfacet
  facet normal -1 0 0
    outer loop
      vertex 7.625 1.5 2
      vertex 7.625 3.11803 0.82443
      vertex 7.625 2.95794 0.630906
    endloop
  endfacet
  facet normal -1 -0 0
    outer loop
      vertex 7.625 3.25261 2.96351
      vertex 7.625 1.5 2
      vertex 7.625 3.11803 3.17557
    endloop
  endfacet
  facet normal -1 0 0
    outer loop
      vertex 7.625 1.5 2
      vertex 7.625 2.95794 0.630906
      vertex 7.625 2.77485 0.458974
    endloop
  endfacet
  facet normal -1 -0 0
    outer loop
      vertex 7.625 3.11803 3.17557
      vertex 7.625 1.5 2
      vertex 7.625 2.95794 3.36909
    endloop
  endfacet
  facet normal -1 0 0
    outer loop
      vertex 7.625 1.5 2
      vertex 7.625 2.77485 0.458974
      vertex 7.625 2.57165 0.311345
    endloop
  endfacet
  facet normal -1 -0 0
    outer loop
      vertex 7.625 2.95794 3.36909
      vertex 7.625 1.5 2
      vertex 7.625 2.77485 3.54103
    endloop
  endfacet
  facet normal -1 0 0
    outer loop
      vertex 7.625 1.5 2
      vertex 7.625 2.57165 0.311345
      vertex 7.625 2.35156 0.190347
    endloop
  endfacet
  facet normal -1 -0 0
    outer loop
      vertex 7.625 2.77485 3.54103
      vertex 7.625 1.5 2
      vertex 7.625 2.57165 3.68865
    endloop
  endfacet
  facet normal -1 0 0
    outer loop
      vertex 7.625 1.5 2
      vertex 7.625 2.35156 0.190347
      vertex 7.625 2.11803 0.097887
    endloop
  endfacet
  facet normal -1 -0 0
    outer loop
      vertex 7.625 2.57165 3.68865
      vertex 7.625 1.5 2
      vertex 7.625 2.35156 3.80965
    endloop
  endfacet
  facet normal -1 0 0
    outer loop
      vertex 7.625 1.5 2
      vertex 7.625 2.11803 0.097887
      vertex 7.625 1.87476 0.0354261
    endloop
  endfacet
  facet normal -1 -0 0
    outer loop
      vertex 7.625 2.35156 3.80965
      vertex 7.625 1.5 2
      vertex 7.625 2.11803 3.90211
    endloop
  endfacet
  facet normal -1 0 0
    outer loop
      vertex 7.625 1.5 2
      vertex 7.625 1.87476 0.0354261
      vertex 7.625 1.62558 0.00394726
    endloop
  endfacet
  facet normal -1 -0 0
    outer loop
      vertex 7.625 2.11803 3.90211
      vertex 7.625 1.5 2
      vertex 7.625 1.87476 3.96457
    endloop
  endfacet
  facet normal -1 0 0
    outer loop
      vertex 7.625 1.5 2
      vertex 7.625 1.62558 0.00394726
      vertex 7.625 1.5 0.00394726
    endloop
  endfacet
  facet normal -1 -0 0
    outer loop
      vertex 7.625 1.87476 3.96457
      vertex 7.625 1.5 2
      vertex 7.625 1.62558 3.99605
    endloop
  endfacet
  facet normal -1 -0 0
    outer loop
      vertex 7.625 1.62558 3.99605
      vertex 7.625 1.5 2
      vertex 7.625 1.5 3.99605
    endloop
  endfacet
  facet normal 0 0.770514 -0.637423
    outer loop
      vertex 22.875 2.95794 0.630906
      vertex 7.625 3.11803 0.82443
      vertex 22.875 3.11803 0.82443
    endloop
  endfacet
  facet normal 0 0.770514 -0.637423
    outer loop
      vertex 7.625 3.11803 0.82443
      vertex 22.875 2.95794 0.630906
      vertex 7.625 2.95794 0.630906
    endloop
  endfacet
  facet normal 0 0.951056 0.309018
    outer loop
      vertex 22.875 3.43717 2.49738
      vertex 7.625 3.35955 2.73625
      vertex 22.875 3.35955 2.73625
    endloop
  endfacet
  facet normal 0 0.951056 0.309018
    outer loop
      vertex 7.625 3.35955 2.73625
      vertex 22.875 3.43717 2.49738
      vertex 7.625 3.43717 2.49738
    endloop
  endfacet
  facet normal 0 0.998027 0.062792
    outer loop
      vertex 22.875 3.5 2
      vertex 7.625 3.48423 2.25067
      vertex 22.875 3.48423 2.25067
    endloop
  endfacet
  facet normal 0 0.998027 0.062792
    outer loop
      vertex 7.625 3.48423 2.25067
      vertex 22.875 3.5 2
      vertex 7.625 3.5 2
    endloop
  endfacet
  facet normal -0 0.248688 0.968584
    outer loop
      vertex 7.625 2.11803 3.90211
      vertex 22.875 1.87476 3.96457
      vertex 22.875 2.11803 3.90211
    endloop
  endfacet
  facet normal 0 0.248688 0.968584
    outer loop
      vertex 22.875 1.87476 3.96457
      vertex 7.625 2.11803 3.90211
      vertex 7.625 1.87476 3.96457
    endloop
  endfacet
  facet normal 0 0.770514 0.637423
    outer loop
      vertex 22.875 3.11803 3.17557
      vertex 7.625 2.95794 3.36909
      vertex 22.875 2.95794 3.36909
    endloop
  endfacet
  facet normal 0 0.770514 0.637423
    outer loop
      vertex 7.625 2.95794 3.36909
      vertex 22.875 3.11803 3.17557
      vertex 7.625 3.11803 3.17557
    endloop
  endfacet
  facet normal 0 0.844328 0.535826
    outer loop
      vertex 22.875 3.25261 2.96351
      vertex 7.625 3.11803 3.17557
      vertex 22.875 3.11803 3.17557
    endloop
  endfacet
  facet normal 0 0.844328 0.535826
    outer loop
      vertex 7.625 3.11803 3.17557
      vertex 22.875 3.25261 2.96351
      vertex 7.625 3.25261 2.96351
    endloop
  endfacet
  facet normal 0 0.982287 0.18738
    outer loop
      vertex 22.875 3.48423 2.25067
      vertex 7.625 3.43717 2.49738
      vertex 22.875 3.43717 2.49738
    endloop
  endfacet
  facet normal 0 0.982287 0.18738
    outer loop
      vertex 7.625 3.43717 2.49738
      vertex 22.875 3.48423 2.25067
      vertex 7.625 3.48423 2.25067
    endloop
  endfacet
  facet normal -0 0.481753 0.876307
    outer loop
      vertex 7.625 2.57165 3.68865
      vertex 22.875 2.35156 3.80965
      vertex 22.875 2.57165 3.68865
    endloop
  endfacet
  facet normal 0 0.481753 0.876307
    outer loop
      vertex 22.875 2.35156 3.80965
      vertex 7.625 2.57165 3.68865
      vertex 7.625 2.35156 3.80965
    endloop
  endfacet
  facet normal -0 0.587785 0.809017
    outer loop
      vertex 7.625 2.77485 3.54103
      vertex 22.875 2.57165 3.68865
      vertex 22.875 2.77485 3.54103
    endloop
  endfacet
  facet normal 0 0.587785 0.809017
    outer loop
      vertex 22.875 2.57165 3.68865
      vertex 7.625 2.77485 3.54103
      vertex 7.625 2.57165 3.68865
    endloop
  endfacet
  facet normal -0 0.125333 0.992115
    outer loop
      vertex 7.625 1.87476 3.96457
      vertex 22.875 1.62558 3.99605
      vertex 22.875 1.87476 3.96457
    endloop
  endfacet
  facet normal 0 0.125333 0.992115
    outer loop
      vertex 22.875 1.62558 3.99605
      vertex 7.625 1.87476 3.96457
      vertex 7.625 1.62558 3.99605
    endloop
  endfacet
  facet normal -0 0.368128 0.929775
    outer loop
      vertex 7.625 2.35156 3.80965
      vertex 22.875 2.11803 3.90211
      vertex 22.875 2.35156 3.80965
    endloop
  endfacet
  facet normal 0 0.368128 0.929775
    outer loop
      vertex 22.875 2.11803 3.90211
      vertex 7.625 2.35156 3.80965
      vertex 7.625 2.11803 3.90211
    endloop
  endfacet
  facet normal 0 -1 0
    outer loop
      vertex 11.6171 1.5 0.00394726
      vertex 7.625 1.5 2
      vertex 7.625 1.5 0.00394726
    endloop
  endfacet
  facet normal 0 -0.998027 0.062792
    outer loop
      vertex 7.625 5 2
      vertex 22.875 5.01577 2.25067
      vertex 7.625 5.01577 2.25067
    endloop
  endfacet
  facet normal 0 -0.998027 0.062792
    outer loop
      vertex 22.875 5.01577 2.25067
      vertex 7.625 5 2
      vertex 22.875 5 2
    endloop
  endfacet
  facet normal -0 0 1
    outer loop
      vertex 7.625 7 3.99605
      vertex 22.875 6.87442 3.99605
      vertex 22.875 7 3.99605
    endloop
  endfacet
  facet normal 0 0 1
    outer loop
      vertex 22.875 6.87442 3.99605
      vertex 7.625 7 3.99605
      vertex 7.625 6.87442 3.99605
    endloop
  endfacet
  facet normal 0 0 -1
    outer loop
      vertex 7.625 6.87442 0.00394726
      vertex 22.875 7 0.00394726
      vertex 22.875 6.87442 0.00394726
    endloop
  endfacet
  facet normal -0 0 -1
    outer loop
      vertex 22.875 7 0.00394726
      vertex 7.625 6.87442 0.00394726
      vertex 7.625 7 0.00394726
    endloop
  endfacet
  facet normal 0 -0.684545 0.72897
    outer loop
      vertex 7.625 5.72515 3.54103
      vertex 22.875 5.54206 3.36909
      vertex 22.875 5.72515 3.54103
    endloop
  endfacet
  facet normal 0 -0.684545 0.72897
    outer loop
      vertex 22.875 5.54206 3.36909
      vertex 7.625 5.72515 3.54103
      vertex 7.625 5.54206 3.36909
    endloop
  endfacet
  facet normal 0 -0.368128 0.929775
    outer loop
      vertex 7.625 6.38197 3.90211
      vertex 22.875 6.14844 3.80965
      vertex 22.875 6.38197 3.90211
    endloop
  endfacet
  facet normal 0 -0.368128 0.929775
    outer loop
      vertex 22.875 6.14844 3.80965
      vertex 7.625 6.38197 3.90211
      vertex 7.625 6.14844 3.80965
    endloop
  endfacet
  facet normal 0 -0.904827 0.425779
    outer loop
      vertex 7.625 5.14045 2.73625
      vertex 22.875 5.24739 2.96351
      vertex 7.625 5.24739 2.96351
    endloop
  endfacet
  facet normal 0 -0.904827 0.425779
    outer loop
      vertex 22.875 5.24739 2.96351
      vertex 7.625 5.14045 2.73625
      vertex 22.875 5.14045 2.73625
    endloop
  endfacet
  facet normal 0 -0.844328 0.535826
    outer loop
      vertex 7.625 5.24739 2.96351
      vertex 22.875 5.38197 3.17557
      vertex 7.625 5.38197 3.17557
    endloop
  endfacet
  facet normal 0 -0.844328 0.535826
    outer loop
      vertex 22.875 5.38197 3.17557
      vertex 7.625 5.24739 2.96351
      vertex 22.875 5.24739 2.96351
    endloop
  endfacet
  facet normal 0 -0.951056 0.309018
    outer loop
      vertex 7.625 5.06283 2.49738
      vertex 22.875 5.14045 2.73625
      vertex 7.625 5.14045 2.73625
    endloop
  endfacet
  facet normal 0 -0.951056 0.309018
    outer loop
      vertex 22.875 5.14045 2.73625
      vertex 7.625 5.06283 2.49738
      vertex 22.875 5.06283 2.49738
    endloop
  endfacet
  facet normal 0 -0.481753 0.876307
    outer loop
      vertex 7.625 6.14844 3.80965
      vertex 22.875 5.92835 3.68865
      vertex 22.875 6.14844 3.80965
    endloop
  endfacet
  facet normal 0 -0.481753 0.876307
    outer loop
      vertex 22.875 5.92835 3.68865
      vertex 7.625 6.14844 3.80965
      vertex 7.625 5.92835 3.68865
    endloop
  endfacet
  facet normal 0 -0.248688 0.968584
    outer loop
      vertex 7.625 6.62524 3.96457
      vertex 22.875 6.38197 3.90211
      vertex 22.875 6.62524 3.96457
    endloop
  endfacet
  facet normal 0 -0.248688 0.968584
    outer loop
      vertex 22.875 6.38197 3.90211
      vertex 7.625 6.62524 3.96457
      vertex 7.625 6.38197 3.90211
    endloop
  endfacet
  facet normal 0 -0.982287 0.18738
    outer loop
      vertex 7.625 5.01577 2.25067
      vertex 22.875 5.06283 2.49738
      vertex 7.625 5.06283 2.49738
    endloop
  endfacet
  facet normal 0 -0.982287 0.18738
    outer loop
      vertex 22.875 5.06283 2.49738
      vertex 7.625 5.01577 2.25067
      vertex 22.875 5.01577 2.25067
    endloop
  endfacet
  facet normal 1 0 0
    outer loop
      vertex 22.875 6.62524 3.96457
      vertex 22.875 7 3.99605
      vertex 22.875 6.87442 3.99605
    endloop
  endfacet
  facet normal 1 0 0
    outer loop
      vertex 22.875 6.38197 3.90211
      vertex 22.875 7 3.99605
      vertex 22.875 6.62524 3.96457
    endloop
  endfacet
  facet normal 1 0 0
    outer loop
      vertex 22.875 7 3.99605
      vertex 22.875 6.38197 3.90211
      vertex 22.875 7 0.00394726
    endloop
  endfacet
  facet normal 1 0 0
    outer loop
      vertex 22.875 7 0.00394726
      vertex 22.875 6.62524 0.0354261
      vertex 22.875 6.87442 0.00394726
    endloop
  endfacet
  facet normal 1 -0 0
    outer loop
      vertex 22.875 6.38197 0.097887
      vertex 22.875 7 0.00394726
      vertex 22.875 6.38197 3.90211
    endloop
  endfacet
  facet normal 1 0 0
    outer loop
      vertex 22.875 7 0.00394726
      vertex 22.875 6.38197 0.097887
      vertex 22.875 6.62524 0.0354261
    endloop
  endfacet
  facet normal 1 -0 0
    outer loop
      vertex 22.875 6.14844 3.80965
      vertex 22.875 6.38197 0.097887
      vertex 22.875 6.38197 3.90211
    endloop
  endfacet
  facet normal 1 0 0
    outer loop
      vertex 22.875 6.14844 3.80965
      vertex 22.875 6.14844 0.190347
      vertex 22.875 6.38197 0.097887
    endloop
  endfacet
  facet normal 1 -0 0
    outer loop
      vertex 22.875 5.92835 3.68865
      vertex 22.875 6.14844 0.190347
      vertex 22.875 6.14844 3.80965
    endloop
  endfacet
  facet normal 1 0 0
    outer loop
      vertex 22.875 5.92835 3.68865
      vertex 22.875 5.92835 0.311345
      vertex 22.875 6.14844 0.190347
    endloop
  endfacet
  facet normal 1 -0 0
    outer loop
      vertex 22.875 5.72515 3.54103
      vertex 22.875 5.92835 0.311345
      vertex 22.875 5.92835 3.68865
    endloop
  endfacet
  facet normal 1 0 0
    outer loop
      vertex 22.875 5.72515 3.54103
      vertex 22.875 5.72515 0.458974
      vertex 22.875 5.92835 0.311345
    endloop
  endfacet
  facet normal 1 -0 0
    outer loop
      vertex 22.875 5.54206 3.36909
      vertex 22.875 5.72515 0.458974
      vertex 22.875 5.72515 3.54103
    endloop
  endfacet
  facet normal 1 0 0
    outer loop
      vertex 22.875 5.54206 3.36909
      vertex 22.875 5.54206 0.630906
      vertex 22.875 5.72515 0.458974
    endloop
  endfacet
  facet normal 1 -0 0
    outer loop
      vertex 22.875 5.38197 3.17557
      vertex 22.875 5.54206 0.630906
      vertex 22.875 5.54206 3.36909
    endloop
  endfacet
  facet normal 1 0 0
    outer loop
      vertex 22.875 5.38197 3.17557
      vertex 22.875 5.38197 0.82443
      vertex 22.875 5.54206 0.630906
    endloop
  endfacet
  facet normal 1 -0 0
    outer loop
      vertex 22.875 5.24739 2.96351
      vertex 22.875 5.38197 0.82443
      vertex 22.875 5.38197 3.17557
    endloop
  endfacet
  facet normal 1 0 0
    outer loop
      vertex 22.875 5.24739 2.96351
      vertex 22.875 5.24739 1.03649
      vertex 22.875 5.38197 0.82443
    endloop
  endfacet
  facet normal 1 -0 0
    outer loop
      vertex 22.875 5.14045 2.73625
      vertex 22.875 5.24739 1.03649
      vertex 22.875 5.24739 2.96351
    endloop
  endfacet
  facet normal 1 0 0
    outer loop
      vertex 22.875 5.14045 2.73625
      vertex 22.875 5.14045 1.26375
      vertex 22.875 5.24739 1.03649
    endloop
  endfacet
  facet normal 1 -0 0
    outer loop
      vertex 22.875 5.06283 2.49738
      vertex 22.875 5.14045 1.26375
      vertex 22.875 5.14045 2.73625
    endloop
  endfacet
  facet normal 1 0 0
    outer loop
      vertex 22.875 5.06283 2.49738
      vertex 22.875 5.06283 1.50262
      vertex 22.875 5.14045 1.26375
    endloop
  endfacet
  facet normal 1 -0 0
    outer loop
      vertex 22.875 5.01577 2.25067
      vertex 22.875 5.06283 1.50262
      vertex 22.875 5.06283 2.49738
    endloop
  endfacet
  facet normal 1 0 0
    outer loop
      vertex 22.875 5.01577 2.25067
      vertex 22.875 5.01577 1.74933
      vertex 22.875 5.06283 1.50262
    endloop
  endfacet
  facet normal 1 0 -0
    outer loop
      vertex 22.875 5.01577 1.74933
      vertex 22.875 5.01577 2.25067
      vertex 22.875 5 2
    endloop
  endfacet
  facet normal 0 -0.587785 0.809017
    outer loop
      vertex 7.625 5.92835 3.68865
      vertex 22.875 5.72515 3.54103
      vertex 22.875 5.92835 3.68865
    endloop
  endfacet
  facet normal 0 -0.587785 0.809017
    outer loop
      vertex 22.875 5.72515 3.54103
      vertex 7.625 5.92835 3.68865
      vertex 7.625 5.72515 3.54103
    endloop
  endfacet
  facet normal 0 -0.125333 0.992115
    outer loop
      vertex 7.625 6.87442 3.99605
      vertex 22.875 6.62524 3.96457
      vertex 22.875 6.87442 3.99605
    endloop
  endfacet
  facet normal 0 -0.125333 0.992115
    outer loop
      vertex 22.875 6.62524 3.96457
      vertex 7.625 6.87442 3.99605
      vertex 7.625 6.62524 3.96457
    endloop
  endfacet
  facet normal 0 -0.684545 -0.72897
    outer loop
      vertex 7.625 5.54206 0.630906
      vertex 22.875 5.72515 0.458974
      vertex 22.875 5.54206 0.630906
    endloop
  endfacet
  facet normal -0 -0.684545 -0.72897
    outer loop
      vertex 22.875 5.72515 0.458974
      vertex 7.625 5.54206 0.630906
      vertex 7.625 5.72515 0.458974
    endloop
  endfacet
  facet normal 0 -0.904827 -0.425779
    outer loop
      vertex 7.625 5.24739 1.03649
      vertex 22.875 5.14045 1.26375
      vertex 7.625 5.14045 1.26375
    endloop
  endfacet
  facet normal 0 -0.904827 -0.425779
    outer loop
      vertex 22.875 5.14045 1.26375
      vertex 7.625 5.24739 1.03649
      vertex 22.875 5.24739 1.03649
    endloop
  endfacet
  facet normal -1 0 0
    outer loop
      vertex 7.625 6.62524 0.0354261
      vertex 7.625 7 0.00394726
      vertex 7.625 6.87442 0.00394726
    endloop
  endfacet
  facet normal -1 0 0
    outer loop
      vertex 7.625 6.38197 0.097887
      vertex 7.625 7 0.00394726
      vertex 7.625 6.62524 0.0354261
    endloop
  endfacet
  facet normal -1 0 0
    outer loop
      vertex 7.625 7 0.00394726
      vertex 7.625 6.38197 0.097887
      vertex 7.625 7 3.99605
    endloop
  endfacet
  facet normal -1 -0 0
    outer loop
      vertex 7.625 7 3.99605
      vertex 7.625 6.62524 3.96457
      vertex 7.625 6.87442 3.99605
    endloop
  endfacet
  facet normal -1 0 0
    outer loop
      vertex 7.625 6.38197 3.90211
      vertex 7.625 7 3.99605
      vertex 7.625 6.38197 0.097887
    endloop
  endfacet
  facet normal -1 0 0
    outer loop
      vertex 7.625 7 3.99605
      vertex 7.625 6.38197 3.90211
      vertex 7.625 6.62524 3.96457
    endloop
  endfacet
  facet normal -1 0 0
    outer loop
      vertex 7.625 6.14844 0.190347
      vertex 7.625 6.38197 3.90211
      vertex 7.625 6.38197 0.097887
    endloop
  endfacet
  facet normal -1 0 0
    outer loop
      vertex 7.625 6.14844 0.190347
      vertex 7.625 6.14844 3.80965
      vertex 7.625 6.38197 3.90211
    endloop
  endfacet
  facet normal -1 0 0
    outer loop
      vertex 7.625 5.92835 0.311345
      vertex 7.625 6.14844 3.80965
      vertex 7.625 6.14844 0.190347
    endloop
  endfacet
  facet normal -1 0 0
    outer loop
      vertex 7.625 5.92835 0.311345
      vertex 7.625 5.92835 3.68865
      vertex 7.625 6.14844 3.80965
    endloop
  endfacet
  facet normal -1 0 0
    outer loop
      vertex 7.625 5.72515 0.458974
      vertex 7.625 5.92835 3.68865
      vertex 7.625 5.92835 0.311345
    endloop
  endfacet
  facet normal -1 0 0
    outer loop
      vertex 7.625 5.72515 0.458974
      vertex 7.625 5.72515 3.54103
      vertex 7.625 5.92835 3.68865
    endloop
  endfacet
  facet normal -1 0 0
    outer loop
      vertex 7.625 5.54206 0.630906
      vertex 7.625 5.72515 3.54103
      vertex 7.625 5.72515 0.458974
    endloop
  endfacet
  facet normal -1 0 0
    outer loop
      vertex 7.625 5.54206 0.630906
      vertex 7.625 5.54206 3.36909
      vertex 7.625 5.72515 3.54103
    endloop
  endfacet
  facet normal -1 0 0
    outer loop
      vertex 7.625 5.38197 0.82443
      vertex 7.625 5.54206 3.36909
      vertex 7.625 5.54206 0.630906
    endloop
  endfacet
  facet normal -1 0 0
    outer loop
      vertex 7.625 5.38197 0.82443
      vertex 7.625 5.38197 3.17557
      vertex 7.625 5.54206 3.36909
    endloop
  endfacet
  facet normal -1 0 0
    outer loop
      vertex 7.625 5.24739 1.03649
      vertex 7.625 5.38197 3.17557
      vertex 7.625 5.38197 0.82443
    endloop
  endfacet
  facet normal -1 0 0
    outer loop
      vertex 7.625 5.24739 1.03649
      vertex 7.625 5.24739 2.96351
      vertex 7.625 5.38197 3.17557
    endloop
  endfacet
  facet normal -1 0 0
    outer loop
      vertex 7.625 5.14045 1.26375
      vertex 7.625 5.24739 2.96351
      vertex 7.625 5.24739 1.03649
    endloop
  endfacet
  facet normal -1 0 0
    outer loop
      vertex 7.625 5.14045 1.26375
      vertex 7.625 5.14045 2.73625
      vertex 7.625 5.24739 2.96351
    endloop
  endfacet
  facet normal -1 0 0
    outer loop
      vertex 7.625 5.06283 1.50262
      vertex 7.625 5.14045 2.73625
      vertex 7.625 5.14045 1.26375
    endloop
  endfacet
  facet normal -1 0 0
    outer loop
      vertex 7.625 5.06283 1.50262
      vertex 7.625 5.06283 2.49738
      vertex 7.625 5.14045 2.73625
    endloop
  endfacet
  facet normal -1 0 0
    outer loop
      vertex 7.625 5.01577 1.74933
      vertex 7.625 5.06283 2.49738
      vertex 7.625 5.06283 1.50262
    endloop
  endfacet
  facet normal -1 0 0
    outer loop
      vertex 7.625 5.01577 1.74933
      vertex 7.625 5.01577 2.25067
      vertex 7.625 5.06283 2.49738
    endloop
  endfacet
  facet normal -1 0 -0
    outer loop
      vertex 7.625 5.01577 2.25067
      vertex 7.625 5.01577 1.74933
      vertex 7.625 5 2
    endloop
  endfacet
  facet normal 0 -0.770514 0.637423
    outer loop
      vertex 7.625 5.38197 3.17557
      vertex 22.875 5.54206 3.36909
      vertex 7.625 5.54206 3.36909
    endloop
  endfacet
  facet normal 0 -0.770514 0.637423
    outer loop
      vertex 22.875 5.54206 3.36909
      vertex 7.625 5.38197 3.17557
      vertex 22.875 5.38197 3.17557
    endloop
  endfacet
  facet normal 0 -0.951056 -0.309018
    outer loop
      vertex 7.625 5.14045 1.26375
      vertex 22.875 5.06283 1.50262
      vertex 7.625 5.06283 1.50262
    endloop
  endfacet
  facet normal 0 -0.951056 -0.309018
    outer loop
      vertex 22.875 5.06283 1.50262
      vertex 7.625 5.14045 1.26375
      vertex 22.875 5.14045 1.26375
    endloop
  endfacet
  facet normal 0 -0.998027 -0.062792
    outer loop
      vertex 7.625 5.01577 1.74933
      vertex 22.875 5 2
      vertex 7.625 5 2
    endloop
  endfacet
  facet normal 0 -0.998027 -0.062792
    outer loop
      vertex 22.875 5 2
      vertex 7.625 5.01577 1.74933
      vertex 22.875 5.01577 1.74933
    endloop
  endfacet
  facet normal 0 -0.248688 -0.968584
    outer loop
      vertex 7.625 6.38197 0.097887
      vertex 22.875 6.62524 0.0354261
      vertex 22.875 6.38197 0.097887
    endloop
  endfacet
  facet normal -0 -0.248688 -0.968584
    outer loop
      vertex 22.875 6.62524 0.0354261
      vertex 7.625 6.38197 0.097887
      vertex 7.625 6.62524 0.0354261
    endloop
  endfacet
  facet normal 0 -0.770514 -0.637423
    outer loop
      vertex 7.625 5.54206 0.630906
      vertex 22.875 5.38197 0.82443
      vertex 7.625 5.38197 0.82443
    endloop
  endfacet
  facet normal 0 -0.770514 -0.637423
    outer loop
      vertex 22.875 5.38197 0.82443
      vertex 7.625 5.54206 0.630906
      vertex 22.875 5.54206 0.630906
    endloop
  endfacet
  facet normal 0 -0.844328 -0.535826
    outer loop
      vertex 7.625 5.38197 0.82443
      vertex 22.875 5.24739 1.03649
      vertex 7.625 5.24739 1.03649
    endloop
  endfacet
  facet normal 0 -0.844328 -0.535826
    outer loop
      vertex 22.875 5.24739 1.03649
      vertex 7.625 5.38197 0.82443
      vertex 22.875 5.38197 0.82443
    endloop
  endfacet
  facet normal 0 -0.982287 -0.18738
    outer loop
      vertex 7.625 5.06283 1.50262
      vertex 22.875 5.01577 1.74933
      vertex 7.625 5.01577 1.74933
    endloop
  endfacet
  facet normal 0 -0.982287 -0.18738
    outer loop
      vertex 22.875 5.01577 1.74933
      vertex 7.625 5.06283 1.50262
      vertex 22.875 5.06283 1.50262
    endloop
  endfacet
  facet normal 0 -0.481753 -0.876307
    outer loop
      vertex 7.625 5.92835 0.311345
      vertex 22.875 6.14844 0.190347
      vertex 22.875 5.92835 0.311345
    endloop
  endfacet
  facet normal -0 -0.481753 -0.876307
    outer loop
      vertex 22.875 6.14844 0.190347
      vertex 7.625 5.92835 0.311345
      vertex 7.625 6.14844 0.190347
    endloop
  endfacet
  facet normal 0 -0.587785 -0.809017
    outer loop
      vertex 7.625 5.72515 0.458974
      vertex 22.875 5.92835 0.311345
      vertex 22.875 5.72515 0.458974
    endloop
  endfacet
  facet normal -0 -0.587785 -0.809017
    outer loop
      vertex 22.875 5.92835 0.311345
      vertex 7.625 5.72515 0.458974
      vertex 7.625 5.92835 0.311345
    endloop
  endfacet
  facet normal 0 -0.125333 -0.992115
    outer loop
      vertex 7.625 6.62524 0.0354261
      vertex 22.875 6.87442 0.00394726
      vertex 22.875 6.62524 0.0354261
    endloop
  endfacet
  facet normal -0 -0.125333 -0.992115
    outer loop
      vertex 22.875 6.87442 0.00394726
      vertex 7.625 6.62524 0.0354261
      vertex 7.625 6.87442 0.00394726
    endloop
  endfacet
  facet normal 0 -0.368128 -0.929775
    outer loop
      vertex 7.625 6.14844 0.190347
      vertex 22.875 6.38197 0.097887
      vertex 22.875 6.14844 0.190347
    endloop
  endfacet
  facet normal -0 -0.368128 -0.929775
    outer loop
      vertex 22.875 6.38197 0.097887
      vertex 7.625 6.14844 0.190347
      vertex 7.625 6.38197 0.097887
    endloop
  endfacet
  facet normal 0 1 -0
    outer loop
      vertex 22.875 7 0.00394726
      vertex 7.625 7 3.99605
      vertex 22.875 7 3.99605
    endloop
  endfacet
  facet normal 0 1 0
    outer loop
      vertex 7.625 7 3.99605
      vertex 22.875 7 0.00394726
      vertex 7.625 7 0.00394726
    endloop
  endfacet
endsolid OpenSCAD_Model
