solid OpenSCAD_Model
  facet normal -1 0 0
    outer loop
      vertex 0 -9.5 -17.75
      vertex 0 0 0
      vertex 0 -2.17375e-15 -17.75
    endloop
  endfacet
  facet normal -1 -0 0
    outer loop
      vertex 0 0 0
      vertex 0 -9.5 -17.75
      vertex 0 -9.5 1.16341e-15
    endloop
  endfacet
  facet normal 0 0 -1
    outer loop
      vertex 0 -9.5 -17.75
      vertex 10.7 -2.17375e-15 -17.75
      vertex 10.7 -9.5 -17.75
    endloop
  endfacet
  facet normal -0 0 -1
    outer loop
      vertex 10.7 -2.17375e-15 -17.75
      vertex 0 -9.5 -17.75
      vertex 0 -2.17375e-15 -17.75
    endloop
  endfacet
  facet normal 1 0 0
    outer loop
      vertex 10.7 -9.5 1.16341e-15
      vertex 10.7 -2.17375e-15 -17.75
      vertex 10.7 0 0
    endloop
  endfacet
  facet normal 1 0 0
    outer loop
      vertex 10.7 -2.17375e-15 -17.75
      vertex 10.7 -9.5 1.16341e-15
      vertex 10.7 -9.5 -17.75
    endloop
  endfacet
  facet normal 0 -1 0
    outer loop
      vertex 0 -9.5 1.16341e-15
      vertex 1.675 -9.5 -13.3125
      vertex 1.675 -9.5 1.16341e-15
    endloop
  endfacet
  facet normal 0 -1 0
    outer loop
      vertex 0 -9.5 -17.75
      vertex 2.675 -9.5 -13.3125
      vertex 1.675 -9.5 -13.3125
    endloop
  endfacet
  facet normal 0 -1 -0
    outer loop
      vertex 2.675 -9.5 -13.3125
      vertex 0 -9.5 -17.75
      vertex 8.025 -9.5 -13.3125
    endloop
  endfacet
  facet normal 0 -1 0
    outer loop
      vertex 10.7 -9.5 -17.75
      vertex 8.025 -9.5 -13.3125
      vertex 0 -9.5 -17.75
    endloop
  endfacet
  facet normal 0 -1 0
    outer loop
      vertex 0 -9.5 -17.75
      vertex 1.675 -9.5 -13.3125
      vertex 0 -9.5 1.16341e-15
    endloop
  endfacet
  facet normal 0 -1 0
    outer loop
      vertex 2.675 -9.5 -13.3125
      vertex 8.025 -9.5 1.16341e-15
      vertex 2.675 -9.5 1.16341e-15
    endloop
  endfacet
  facet normal 0 -1 -0
    outer loop
      vertex 8.025 -9.5 1.16341e-15
      vertex 2.675 -9.5 -13.3125
      vertex 8.025 -9.5 -13.3125
    endloop
  endfacet
  facet normal 0 -1 0
    outer loop
      vertex 9.025 -9.5 -13.3125
      vertex 10.7 -9.5 1.16341e-15
      vertex 9.025 -9.5 1.16341e-15
    endloop
  endfacet
  facet normal 0 -1 0
    outer loop
      vertex 9.025 -9.5 -13.3125
      vertex 10.7 -9.5 -17.75
      vertex 10.7 -9.5 1.16341e-15
    endloop
  endfacet
  facet normal 0 -1 0
    outer loop
      vertex 8.025 -9.5 -13.3125
      vertex 10.7 -9.5 -17.75
      vertex 9.025 -9.5 -13.3125
    endloop
  endfacet
  facet normal -4.64382e-24 1.22465e-16 1
    outer loop
      vertex 10.7 0 0
      vertex 9.2 -1.5 1.83697e-16
      vertex 10.7 -9.5 1.16341e-15
    endloop
  endfacet
  facet normal 0 1.22465e-16 1
    outer loop
      vertex 10.7 0 0
      vertex 1.5 -1.5 1.83697e-16
      vertex 9.2 -1.5 1.83697e-16
    endloop
  endfacet
  facet normal 1.08594e-23 1.22465e-16 1
    outer loop
      vertex 1.5 -1.5 1.83697e-16
      vertex 0 0 0
      vertex 1.5 -8 9.79717e-16
    endloop
  endfacet
  facet normal -0 1.22465e-16 1
    outer loop
      vertex 0 0 0
      vertex 1.5 -1.5 1.83697e-16
      vertex 10.7 0 0
    endloop
  endfacet
  facet normal 2.85059e-23 1.22465e-16 1
    outer loop
      vertex 9.2 -8 9.79717e-16
      vertex 10.7 -9.5 1.16341e-15
      vertex 9.2 -1.5 1.83697e-16
    endloop
  endfacet
  facet normal 0 1.22465e-16 1
    outer loop
      vertex 9.025 -9.5 1.16341e-15
      vertex 9.2 -8 9.79717e-16
      vertex 9.025 -8 9.79717e-16
    endloop
  endfacet
  facet normal 0 1.22465e-16 1
    outer loop
      vertex 9.2 -8 9.79717e-16
      vertex 9.025 -9.5 1.16341e-15
      vertex 10.7 -9.5 1.16341e-15
    endloop
  endfacet
  facet normal -0 1.22465e-16 1
    outer loop
      vertex 1.5 -8 9.79717e-16
      vertex 1.675 -9.5 1.16341e-15
      vertex 1.675 -8 9.79717e-16
    endloop
  endfacet
  facet normal -2.22903e-23 1.22465e-16 1
    outer loop
      vertex 0 -9.5 1.16341e-15
      vertex 1.5 -8 9.79717e-16
      vertex 0 0 0
    endloop
  endfacet
  facet normal 0 1.22465e-16 1
    outer loop
      vertex 1.5 -8 9.79717e-16
      vertex 0 -9.5 1.16341e-15
      vertex 1.675 -9.5 1.16341e-15
    endloop
  endfacet
  facet normal -0 1.22465e-16 1
    outer loop
      vertex 2.675 -8 9.79717e-16
      vertex 8.025 -9.5 1.16341e-15
      vertex 8.025 -8 9.79717e-16
    endloop
  endfacet
  facet normal 0 1.22465e-16 1
    outer loop
      vertex 8.025 -9.5 1.16341e-15
      vertex 2.675 -8 9.79717e-16
      vertex 2.675 -9.5 1.16341e-15
    endloop
  endfacet
  facet normal 1.12525e-21 1 -1.22465e-16
    outer loop
      vertex 6.2976 -1.45488e-15 -11.88
      vertex 6.54249 -1.28662e-15 -10.506
      vertex 6.34045 -1.45002e-15 -11.8403
    endloop
  endfacet
  facet normal -3.94404e-23 1 -1.22465e-16
    outer loop
      vertex 6.34045 -1.45002e-15 -11.8403
      vertex 6.54249 -1.28662e-15 -10.506
      vertex 6.39555 -1.44627e-15 -11.8097
    endloop
  endfacet
  facet normal 3.58155e-22 1 -1.22465e-16
    outer loop
      vertex 6.39555 -1.44627e-15 -11.8097
      vertex 6.54249 -1.28662e-15 -10.506
      vertex 6.4629 -1.44365e-15 -11.7883
    endloop
  endfacet
  facet normal 1.47336e-22 1 -1.22465e-16
    outer loop
      vertex 6.4629 -1.44365e-15 -11.7883
      vertex 6.54249 -1.28662e-15 -10.506
      vertex 6.54249 -1.44214e-15 -11.776
    endloop
  endfacet
  facet normal 0 1 -1.22465e-16
    outer loop
      vertex 6.54849 -1.21497e-15 -9.92101
      vertex 10.7 0 0
      vertex 7.0995 -1.21497e-15 -9.92101
    endloop
  endfacet
  facet normal -1.90658e-25 1 -1.22465e-16
    outer loop
      vertex 10.7 -2.17375e-15 -17.75
      vertex 7.0995 -1.21497e-15 -9.92101
      vertex 10.7 0 0
    endloop
  endfacet
  facet normal 0 1 -1.22465e-16
    outer loop
      vertex 7.0995 -1.51023e-15 -12.332
      vertex 10.7 -2.17375e-15 -17.75
      vertex 6.60949 -1.51023e-15 -12.332
    endloop
  endfacet
  facet normal -2.33662e-23 1 -1.22465e-16
    outer loop
      vertex 7.0995 -1.21497e-15 -9.92101
      vertex 10.7 -2.17375e-15 -17.75
      vertex 7.0995 -1.51023e-15 -12.332
    endloop
  endfacet
  facet normal 0 1 -1.22465e-16
    outer loop
      vertex 10.7 0 0
      vertex 6.54849 -1.21497e-15 -9.92101
      vertex 0 0 0
    endloop
  endfacet
  facet normal 1.21327e-23 1 -1.22465e-16
    outer loop
      vertex 3.9325 -1.32348e-15 -10.807
      vertex 0 0 0
      vertex 6.54849 -1.21497e-15 -9.92101
    endloop
  endfacet
  facet normal -1.64431e-22 1 -1.22465e-16
    outer loop
      vertex 3.89173 -1.32543e-15 -10.8229
      vertex 0 0 0
      vertex 3.9325 -1.32348e-15 -10.807
    endloop
  endfacet
  facet normal -7.34975e-22 1 -1.22465e-16
    outer loop
      vertex 3.82096 -1.32948e-15 -10.856
      vertex 0 0 0
      vertex 3.89173 -1.32543e-15 -10.8229
    endloop
  endfacet
  facet normal -4.3993e-22 1 -1.22465e-16
    outer loop
      vertex 3.79096 -1.33157e-15 -10.8731
      vertex 0 0 0
      vertex 3.82096 -1.32948e-15 -10.856
    endloop
  endfacet
  facet normal 7.52281e-23 1 -1.22465e-16
    outer loop
      vertex 3.76455 -1.33372e-15 -10.8907
      vertex 0 0 0
      vertex 3.79096 -1.33157e-15 -10.8731
    endloop
  endfacet
  facet normal -3.73518e-22 1 -1.22465e-16
    outer loop
      vertex 3.74174 -1.33592e-15 -10.9086
      vertex 0 0 0
      vertex 3.76455 -1.33372e-15 -10.8907
    endloop
  endfacet
  facet normal 3.20403e-21 1 -1.22464e-16
    outer loop
      vertex 3.72251 -1.33817e-15 -10.927
      vertex 0 0 0
      vertex 3.74174 -1.33592e-15 -10.9086
    endloop
  endfacet
  facet normal -6.08133e-22 1 -1.22465e-16
    outer loop
      vertex 3.70658 -1.34052e-15 -10.9461
      vertex 0 0 0
      vertex 3.72251 -1.33817e-15 -10.927
    endloop
  endfacet
  facet normal -1.78404e-22 1 -1.22465e-16
    outer loop
      vertex 3.69312 -1.34306e-15 -10.9669
      vertex 0 0 0
      vertex 3.70658 -1.34052e-15 -10.9461
    endloop
  endfacet
  facet normal 3.85611e-23 1 -1.22465e-16
    outer loop
      vertex 3.68209 -1.34581e-15 -10.9894
      vertex 0 0 0
      vertex 3.69312 -1.34306e-15 -10.9669
    endloop
  endfacet
  facet normal -1.59018e-21 1 -1.22465e-16
    outer loop
      vertex 3.67353 -1.34877e-15 -11.0135
      vertex 0 0 0
      vertex 3.68209 -1.34581e-15 -10.9894
    endloop
  endfacet
  facet normal 1.02516e-21 1 -1.22464e-16
    outer loop
      vertex 3.6674 -1.35193e-15 -11.0394
      vertex 0 0 0
      vertex 3.67353 -1.34877e-15 -11.0135
    endloop
  endfacet
  facet normal 4.33562e-21 1 -1.22467e-16
    outer loop
      vertex 0 -2.17375e-15 -17.75
      vertex 3.6674 -1.35193e-15 -11.0394
      vertex 3.66374 -1.3553e-15 -11.0668
    endloop
  endfacet
  facet normal -1.97992e-21 1 -1.22464e-16
    outer loop
      vertex 0 -2.17375e-15 -17.75
      vertex 3.66374 -1.3553e-15 -11.0668
      vertex 3.6625 -1.35887e-15 -11.096
    endloop
  endfacet
  facet normal -1.55891e-21 1 -1.22464e-16
    outer loop
      vertex 0 -2.17375e-15 -17.75
      vertex 3.6625 -1.35887e-15 -11.096
      vertex 3.66413 -1.36272e-15 -11.1275
    endloop
  endfacet
  facet normal 2.44701e-21 1 -1.22466e-16
    outer loop
      vertex 0 -2.17375e-15 -17.75
      vertex 3.66413 -1.36272e-15 -11.1275
      vertex 3.66903 -1.36645e-15 -11.1579
    endloop
  endfacet
  facet normal -2.77766e-22 1 -1.22465e-16
    outer loop
      vertex 0 -2.17375e-15 -17.75
      vertex 3.66903 -1.36645e-15 -11.1579
      vertex 3.67719 -1.37004e-15 -11.1872
    endloop
  endfacet
  facet normal -3.18652e-23 1 -1.22465e-16
    outer loop
      vertex 6.54249 -1.28662e-15 -10.506
      vertex 6.2976 -1.45488e-15 -11.88
      vertex 4.08276 -1.39014e-15 -11.3513
    endloop
  endfacet
  facet normal -4.16403e-22 1 -1.22466e-16
    outer loop
      vertex 6.26698 -1.46086e-15 -11.9289
      vertex 4.08276 -1.39014e-15 -11.3513
      vertex 6.2976 -1.45488e-15 -11.88
    endloop
  endfacet
  facet normal -3.82705e-23 1 -1.22465e-16
    outer loop
      vertex 6.24862 -1.46797e-15 -11.9869
      vertex 4.08276 -1.39014e-15 -11.3513
      vertex 6.26698 -1.46086e-15 -11.9289
    endloop
  endfacet
  facet normal 3.08431e-22 1 -1.22464e-16
    outer loop
      vertex 6.24249 -1.47619e-15 -12.054
      vertex 4.08276 -1.39014e-15 -11.3513
      vertex 6.24862 -1.46797e-15 -11.9869
    endloop
  endfacet
  facet normal -3.4441e-22 1 -1.22466e-16
    outer loop
      vertex 6.24998 -1.48522e-15 -12.1278
      vertex 4.08276 -1.39014e-15 -11.3513
      vertex 6.24249 -1.47619e-15 -12.054
    endloop
  endfacet
  facet normal 3.38444e-22 1 -1.22464e-16
    outer loop
      vertex 6.27245 -1.49287e-15 -12.1902
      vertex 4.08276 -1.39014e-15 -11.3513
      vertex 6.24998 -1.48522e-15 -12.1278
    endloop
  endfacet
  facet normal 6.04861e-22 1 -1.22463e-16
    outer loop
      vertex 4.08276 -1.39014e-15 -11.3513
      vertex 6.27245 -1.49287e-15 -12.1902
      vertex 4.02528 -1.39209e-15 -11.3673
    endloop
  endfacet
  facet normal -3.93547e-22 1 -1.22466e-16
    outer loop
      vertex 6.3099 -1.49912e-15 -12.2412
      vertex 4.02528 -1.39209e-15 -11.3673
      vertex 6.27245 -1.49287e-15 -12.1902
    endloop
  endfacet
  facet normal 3.99432e-22 1 -1.22464e-16
    outer loop
      vertex 4.02528 -1.39209e-15 -11.3673
      vertex 6.3099 -1.49912e-15 -12.2412
      vertex 3.9732 -1.39326e-15 -11.3768
    endloop
  endfacet
  facet normal -2.67142e-24 1 -1.22465e-16
    outer loop
      vertex 3.9732 -1.39326e-15 -11.3768
      vertex 6.3099 -1.49912e-15 -12.2412
      vertex 3.92651 -1.39365e-15 -11.38
    endloop
  endfacet
  facet normal 2.15297e-23 1 -1.22465e-16
    outer loop
      vertex 0 -2.17375e-15 -17.75
      vertex 3.92651 -1.39365e-15 -11.38
      vertex 6.3099 -1.49912e-15 -12.2412
    endloop
  endfacet
  facet normal -2.22729e-21 1 -1.22463e-16
    outer loop
      vertex 3.92651 -1.39365e-15 -11.38
      vertex 0 -2.17375e-15 -17.75
      vertex 3.89729 -1.39343e-15 -11.3783
    endloop
  endfacet
  facet normal 2.96806e-22 1 -1.22465e-16
    outer loop
      vertex 3.89729 -1.39343e-15 -11.3783
      vertex 0 -2.17375e-15 -17.75
      vertex 3.86904 -1.39279e-15 -11.373
    endloop
  endfacet
  facet normal -4.30329e-22 1 -1.22464e-16
    outer loop
      vertex 0 -2.17375e-15 -17.75
      vertex 6.3099 -1.49912e-15 -12.2412
      vertex 6.36233 -1.50398e-15 -12.2809
    endloop
  endfacet
  facet normal 4.96131e-22 1 -1.22465e-16
    outer loop
      vertex 0 -2.17375e-15 -17.75
      vertex 6.36233 -1.50398e-15 -12.2809
      vertex 6.42974 -1.50746e-15 -12.3093
    endloop
  endfacet
  facet normal 2.43068e-22 1 -1.22464e-16
    outer loop
      vertex 10.7 -2.17375e-15 -17.75
      vertex 6.51212 -1.50954e-15 -12.3263
      vertex 6.60949 -1.51023e-15 -12.332
    endloop
  endfacet
  facet normal -4.68871e-22 1 -1.22465e-16
    outer loop
      vertex 10.7 -2.17375e-15 -17.75
      vertex 6.42974 -1.50746e-15 -12.3093
      vertex 6.51212 -1.50954e-15 -12.3263
    endloop
  endfacet
  facet normal 0 1 -1.22465e-16
    outer loop
      vertex 0 -2.17375e-15 -17.75
      vertex 6.42974 -1.50746e-15 -12.3093
      vertex 10.7 -2.17375e-15 -17.75
    endloop
  endfacet
  facet normal -6.05739e-22 1 -1.22464e-16
    outer loop
      vertex 3.86904 -1.39279e-15 -11.373
      vertex 0 -2.17375e-15 -17.75
      vertex 3.84177 -1.39171e-15 -11.3642
    endloop
  endfacet
  facet normal 1.69543e-21 1 -1.22466e-16
    outer loop
      vertex 3.84177 -1.39171e-15 -11.3642
      vertex 0 -2.17375e-15 -17.75
      vertex 3.81548 -1.39021e-15 -11.3519
    endloop
  endfacet
  facet normal 8.0366e-22 1 -1.22465e-16
    outer loop
      vertex 3.81548 -1.39021e-15 -11.3519
      vertex 0 -2.17375e-15 -17.75
      vertex 3.79018 -1.38828e-15 -11.3361
    endloop
  endfacet
  facet normal 2.17161e-25 1 -1.22465e-16
    outer loop
      vertex 3.6674 -1.35193e-15 -11.0394
      vertex 0 -2.17375e-15 -17.75
      vertex 0 0 0
    endloop
  endfacet
  facet normal -1.09528e-21 1 -1.22464e-16
    outer loop
      vertex 3.68862 -1.3735e-15 -11.2155
      vertex 0 -2.17375e-15 -17.75
      vertex 3.67719 -1.37004e-15 -11.1872
    endloop
  endfacet
  facet normal 5.21253e-22 1 -1.22465e-16
    outer loop
      vertex 3.70332 -1.37684e-15 -11.2427
      vertex 0 -2.17375e-15 -17.75
      vertex 3.68862 -1.3735e-15 -11.2155
    endloop
  endfacet
  facet normal -2.22448e-22 1 -1.22465e-16
    outer loop
      vertex 3.72128 -1.38004e-15 -11.2689
      vertex 0 -2.17375e-15 -17.75
      vertex 3.70332 -1.37684e-15 -11.2427
    endloop
  endfacet
  facet normal 1.07581e-21 1 -1.22465e-16
    outer loop
      vertex 3.7425 -1.38312e-15 -11.294
      vertex 0 -2.17375e-15 -17.75
      vertex 3.72128 -1.38004e-15 -11.2689
    endloop
  endfacet
  facet normal -8.21155e-22 1 -1.22464e-16
    outer loop
      vertex 3.76585 -1.38591e-15 -11.3168
      vertex 0 -2.17375e-15 -17.75
      vertex 3.7425 -1.38312e-15 -11.294
    endloop
  endfacet
  facet normal -1.95769e-21 1 -1.22464e-16
    outer loop
      vertex 3.79018 -1.38828e-15 -11.3361
      vertex 0 -2.17375e-15 -17.75
      vertex 3.76585 -1.38591e-15 -11.3168
    endloop
  endfacet
  facet normal 1 0 0
    outer loop
      vertex 1.5 -8 9.79717e-16
      vertex 1.5 -1.5 -16.25
      vertex 1.5 -1.5 1.83697e-16
    endloop
  endfacet
  facet normal 1 0 0
    outer loop
      vertex 1.5 -1.5 -16.25
      vertex 1.5 -8 9.79717e-16
      vertex 1.5 -8 -16.25
    endloop
  endfacet
  facet normal -0 0 1
    outer loop
      vertex 1.5 -1.5 -16.25
      vertex 9.2 -8 -16.25
      vertex 9.2 -1.5 -16.25
    endloop
  endfacet
  facet normal 0 0 1
    outer loop
      vertex 9.2 -8 -16.25
      vertex 1.5 -1.5 -16.25
      vertex 1.5 -8 -16.25
    endloop
  endfacet
  facet normal -1 0 0
    outer loop
      vertex 9.2 -8 -16.25
      vertex 9.2 -1.5 1.83697e-16
      vertex 9.2 -1.5 -16.25
    endloop
  endfacet
  facet normal -1 -0 0
    outer loop
      vertex 9.2 -1.5 1.83697e-16
      vertex 9.2 -8 -16.25
      vertex 9.2 -8 9.79717e-16
    endloop
  endfacet
  facet normal 0 1 0
    outer loop
      vertex 9.2 -8 9.79717e-16
      vertex 9.025 -8 -13.3125
      vertex 9.025 -8 9.79717e-16
    endloop
  endfacet
  facet normal 0 1 0
    outer loop
      vertex 9.2 -8 -16.25
      vertex 8.025 -8 -13.3125
      vertex 9.025 -8 -13.3125
    endloop
  endfacet
  facet normal 0 1 0
    outer loop
      vertex 8.025 -8 -13.3125
      vertex 9.2 -8 -16.25
      vertex 2.675 -8 -13.3125
    endloop
  endfacet
  facet normal 0 1 0
    outer loop
      vertex 1.5 -8 -16.25
      vertex 2.675 -8 -13.3125
      vertex 9.2 -8 -16.25
    endloop
  endfacet
  facet normal 0 1 -0
    outer loop
      vertex 9.2 -8 -16.25
      vertex 9.025 -8 -13.3125
      vertex 9.2 -8 9.79717e-16
    endloop
  endfacet
  facet normal 0 1 -0
    outer loop
      vertex 8.025 -8 -13.3125
      vertex 2.675 -8 9.79717e-16
      vertex 8.025 -8 9.79717e-16
    endloop
  endfacet
  facet normal 0 1 0
    outer loop
      vertex 2.675 -8 9.79717e-16
      vertex 8.025 -8 -13.3125
      vertex 2.675 -8 -13.3125
    endloop
  endfacet
  facet normal 0 1 -0
    outer loop
      vertex 1.675 -8 -13.3125
      vertex 1.5 -8 9.79717e-16
      vertex 1.675 -8 9.79717e-16
    endloop
  endfacet
  facet normal 0 1 0
    outer loop
      vertex 1.675 -8 -13.3125
      vertex 1.5 -8 -16.25
      vertex 1.5 -8 9.79717e-16
    endloop
  endfacet
  facet normal 0 1 0
    outer loop
      vertex 2.675 -8 -13.3125
      vertex 1.5 -8 -16.25
      vertex 1.675 -8 -13.3125
    endloop
  endfacet
  facet normal 0 -1 0
    outer loop
      vertex 1.5 -1.5 -16.25
      vertex 9.2 -1.5 1.83697e-16
      vertex 1.5 -1.5 1.83697e-16
    endloop
  endfacet
  facet normal 0 -1 -0
    outer loop
      vertex 9.2 -1.5 1.83697e-16
      vertex 1.5 -1.5 -16.25
      vertex 9.2 -1.5 -16.25
    endloop
  endfacet
  facet normal 1 0 0
    outer loop
      vertex 1.675 -9.5 1.16341e-15
      vertex 1.675 -8 -13.3125
      vertex 1.675 -8 9.79717e-16
    endloop
  endfacet
  facet normal 1 0 0
    outer loop
      vertex 1.675 -8 -13.3125
      vertex 1.675 -9.5 1.16341e-15
      vertex 1.675 -9.5 -13.3125
    endloop
  endfacet
  facet normal -0 0 1
    outer loop
      vertex 1.675 -8 -13.3125
      vertex 2.675 -9.5 -13.3125
      vertex 2.675 -8 -13.3125
    endloop
  endfacet
  facet normal 0 0 1
    outer loop
      vertex 2.675 -9.5 -13.3125
      vertex 1.675 -8 -13.3125
      vertex 1.675 -9.5 -13.3125
    endloop
  endfacet
  facet normal -1 0 0
    outer loop
      vertex 2.675 -9.5 -13.3125
      vertex 2.675 -8 9.79717e-16
      vertex 2.675 -8 -13.3125
    endloop
  endfacet
  facet normal -1 -0 0
    outer loop
      vertex 2.675 -8 9.79717e-16
      vertex 2.675 -9.5 -13.3125
      vertex 2.675 -9.5 1.16341e-15
    endloop
  endfacet
  facet normal 1 0 0
    outer loop
      vertex 8.025 -9.5 1.16341e-15
      vertex 8.025 -8 -13.3125
      vertex 8.025 -8 9.79717e-16
    endloop
  endfacet
  facet normal 1 0 0
    outer loop
      vertex 8.025 -8 -13.3125
      vertex 8.025 -9.5 1.16341e-15
      vertex 8.025 -9.5 -13.3125
    endloop
  endfacet
  facet normal -0 0 1
    outer loop
      vertex 8.025 -8 -13.3125
      vertex 9.025 -9.5 -13.3125
      vertex 9.025 -8 -13.3125
    endloop
  endfacet
  facet normal 0 0 1
    outer loop
      vertex 9.025 -9.5 -13.3125
      vertex 8.025 -8 -13.3125
      vertex 8.025 -9.5 -13.3125
    endloop
  endfacet
  facet normal -1 0 0
    outer loop
      vertex 9.025 -9.5 -13.3125
      vertex 9.025 -8 9.79717e-16
      vertex 9.025 -8 -13.3125
    endloop
  endfacet
  facet normal -1 -0 0
    outer loop
      vertex 9.025 -8 9.79717e-16
      vertex 9.025 -9.5 -13.3125
      vertex 9.025 -9.5 1.16341e-15
    endloop
  endfacet
  facet normal 3.54122e-07 1 9.77473e-08
    outer loop
      vertex 4.08276 -0.249999 -11.3513
      vertex 3.9325 -0.249999 -10.807
      vertex 6.54249 -0.25 -10.506
    endloop
  endfacet
  facet normal 0 1 0
    outer loop
      vertex 7.0995 -0.25 -9.92101
      vertex 6.54249 -0.25 -10.506
      vertex 6.54849 -0.25 -9.92101
    endloop
  endfacet
  facet normal 0 1 -0
    outer loop
      vertex 7.0995 -0.25 -12.332
      vertex 6.54249 -0.25 -10.506
      vertex 7.0995 -0.25 -9.92101
    endloop
  endfacet
  facet normal 0 1 -0
    outer loop
      vertex 6.51212 -0.25 -12.3263
      vertex 6.4629 -0.25 -11.7883
      vertex 6.54249 -0.25 -11.776
    endloop
  endfacet
  facet normal 0 1 0
    outer loop
      vertex 6.4629 -0.25 -11.7883
      vertex 6.42974 -0.25 -12.3093
      vertex 6.39555 -0.25 -11.8097
    endloop
  endfacet
  facet normal -0 1 0
    outer loop
      vertex 6.24862 -0.25 -11.9869
      vertex 6.39555 -0.25 -11.8097
      vertex 6.24249 -0.25 -12.054
    endloop
  endfacet
  facet normal -0 1 0
    outer loop
      vertex 6.26698 -0.25 -11.9289
      vertex 6.34045 -0.25 -11.8403
      vertex 6.24862 -0.25 -11.9869
    endloop
  endfacet
  facet normal 0 1 0
    outer loop
      vertex 6.34045 -0.25 -11.8403
      vertex 6.26698 -0.25 -11.9289
      vertex 6.2976 -0.25 -11.88
    endloop
  endfacet
  facet normal 0 1 0
    outer loop
      vertex 6.39555 -0.25 -11.8097
      vertex 6.24862 -0.25 -11.9869
      vertex 6.34045 -0.25 -11.8403
    endloop
  endfacet
  facet normal 0 1 0
    outer loop
      vertex 6.39555 -0.25 -11.8097
      vertex 6.42974 -0.25 -12.3093
      vertex 6.24249 -0.25 -12.054
    endloop
  endfacet
  facet normal 0 1 0
    outer loop
      vertex 6.24249 -0.25 -12.054
      vertex 6.42974 -0.25 -12.3093
      vertex 6.24998 -0.25 -12.1278
    endloop
  endfacet
  facet normal -0 1 -0
    outer loop
      vertex 6.36233 -0.25 -12.2809
      vertex 6.24998 -0.25 -12.1278
      vertex 6.42974 -0.25 -12.3093
    endloop
  endfacet
  facet normal 0 1 0
    outer loop
      vertex 6.27245 -0.25 -12.1902
      vertex 6.36233 -0.25 -12.2809
      vertex 6.3099 -0.25 -12.2412
    endloop
  endfacet
  facet normal 0 1 0
    outer loop
      vertex 6.24998 -0.25 -12.1278
      vertex 6.36233 -0.25 -12.2809
      vertex 6.27245 -0.25 -12.1902
    endloop
  endfacet
  facet normal 0 1 0
    outer loop
      vertex 6.54249 -0.25 -10.506
      vertex 7.0995 -0.25 -12.332
      vertex 6.54249 -0.25 -11.776
    endloop
  endfacet
  facet normal -0 1 0
    outer loop
      vertex 6.51212 -0.25 -12.3263
      vertex 6.54249 -0.25 -11.776
      vertex 6.60949 -0.25 -12.332
    endloop
  endfacet
  facet normal 0 1 0
    outer loop
      vertex 6.54249 -0.25 -11.776
      vertex 7.0995 -0.25 -12.332
      vertex 6.60949 -0.25 -12.332
    endloop
  endfacet
  facet normal 0 1 0
    outer loop
      vertex 6.4629 -0.25 -11.7883
      vertex 6.51212 -0.25 -12.3263
      vertex 6.42974 -0.25 -12.3093
    endloop
  endfacet
  facet normal 3.65827e-07 1 -3.74997e-09
    outer loop
      vertex 6.54249 -0.25 -10.506
      vertex 3.9325 -0.249999 -10.807
      vertex 6.54849 -0.25 -9.92101
    endloop
  endfacet
  facet normal 0 1 0
    outer loop
      vertex 4.08276 -0.249999 -11.3513
      vertex 3.89173 -0.249999 -10.8229
      vertex 3.9325 -0.249999 -10.807
    endloop
  endfacet
  facet normal 0 1 -0
    outer loop
      vertex 4.02528 -0.249999 -11.3673
      vertex 3.89173 -0.249999 -10.8229
      vertex 4.08276 -0.249999 -11.3513
    endloop
  endfacet
  facet normal 0 1 -0
    outer loop
      vertex 3.9732 -0.249999 -11.3768
      vertex 3.82096 -0.249999 -10.856
      vertex 4.02528 -0.249999 -11.3673
    endloop
  endfacet
  facet normal 0 1 0
    outer loop
      vertex 3.82096 -0.249999 -10.856
      vertex 3.9732 -0.249999 -11.3768
      vertex 3.79096 -0.249999 -10.8731
    endloop
  endfacet
  facet normal -0 1 0
    outer loop
      vertex 3.72128 -0.249999 -11.2689
      vertex 3.79096 -0.249999 -10.8731
      vertex 3.9732 -0.249999 -11.3768
    endloop
  endfacet
  facet normal -0 1 0
    outer loop
      vertex 3.70332 -0.249999 -11.2427
      vertex 3.79096 -0.249999 -10.8731
      vertex 3.72128 -0.249999 -11.2689
    endloop
  endfacet
  facet normal -0 1 0
    outer loop
      vertex 3.68862 -0.249999 -11.2155
      vertex 3.79096 -0.249999 -10.8731
      vertex 3.70332 -0.249999 -11.2427
    endloop
  endfacet
  facet normal 0 1 0
    outer loop
      vertex 3.74174 -0.249999 -10.9086
      vertex 3.6674 -0.249999 -11.0394
      vertex 3.72251 -0.249999 -10.927
    endloop
  endfacet
  facet normal 0 1 0
    outer loop
      vertex 3.70658 -0.249999 -10.9461
      vertex 3.6674 -0.249999 -11.0394
      vertex 3.69312 -0.249999 -10.9669
    endloop
  endfacet
  facet normal 0 1 0
    outer loop
      vertex 3.68209 -0.249999 -10.9894
      vertex 3.6674 -0.249999 -11.0394
      vertex 3.67353 -0.249999 -11.0135
    endloop
  endfacet
  facet normal 0 1 0
    outer loop
      vertex 3.69312 -0.249999 -10.9669
      vertex 3.6674 -0.249999 -11.0394
      vertex 3.68209 -0.249999 -10.9894
    endloop
  endfacet
  facet normal 0 1 0
    outer loop
      vertex 3.72251 -0.249999 -10.927
      vertex 3.6674 -0.249999 -11.0394
      vertex 3.70658 -0.249999 -10.9461
    endloop
  endfacet
  facet normal -0 1 0
    outer loop
      vertex 3.6674 -0.249999 -11.0394
      vertex 3.74174 -0.249999 -10.9086
      vertex 3.66374 -0.249999 -11.0668
    endloop
  endfacet
  facet normal 0 1 0
    outer loop
      vertex 3.76455 -0.249999 -10.8907
      vertex 3.66374 -0.249999 -11.0668
      vertex 3.74174 -0.249999 -10.9086
    endloop
  endfacet
  facet normal -0 1 0
    outer loop
      vertex 3.66374 -0.249999 -11.0668
      vertex 3.76455 -0.249999 -10.8907
      vertex 3.6625 -0.249999 -11.096
    endloop
  endfacet
  facet normal -0 1 0
    outer loop
      vertex 3.6625 -0.249999 -11.096
      vertex 3.76455 -0.249999 -10.8907
      vertex 3.66413 -0.249999 -11.1275
    endloop
  endfacet
  facet normal 0 1 0
    outer loop
      vertex 3.79096 -0.249999 -10.8731
      vertex 3.66413 -0.249999 -11.1275
      vertex 3.76455 -0.249999 -10.8907
    endloop
  endfacet
  facet normal -0 1 0
    outer loop
      vertex 3.66413 -0.249999 -11.1275
      vertex 3.79096 -0.249999 -10.8731
      vertex 3.66903 -0.249999 -11.1579
    endloop
  endfacet
  facet normal -0 1 0
    outer loop
      vertex 3.66903 -0.249999 -11.1579
      vertex 3.79096 -0.249999 -10.8731
      vertex 3.67719 -0.249999 -11.1872
    endloop
  endfacet
  facet normal 0 1 0
    outer loop
      vertex 3.72128 -0.249999 -11.2689
      vertex 3.9732 -0.249999 -11.3768
      vertex 3.7425 -0.249999 -11.294
    endloop
  endfacet
  facet normal 0 1 0
    outer loop
      vertex 3.7425 -0.249999 -11.294
      vertex 3.9732 -0.249999 -11.3768
      vertex 3.76585 -0.249999 -11.3168
    endloop
  endfacet
  facet normal 0 1 0
    outer loop
      vertex 3.89173 -0.249999 -10.8229
      vertex 4.02528 -0.249999 -11.3673
      vertex 3.82096 -0.249999 -10.856
    endloop
  endfacet
  facet normal -0 1 0
    outer loop
      vertex 3.67719 -0.249999 -11.1872
      vertex 3.79096 -0.249999 -10.8731
      vertex 3.68862 -0.249999 -11.2155
    endloop
  endfacet
  facet normal 0 1 0
    outer loop
      vertex 3.76585 -0.249999 -11.3168
      vertex 3.9732 -0.249999 -11.3768
      vertex 3.79018 -0.249999 -11.3361
    endloop
  endfacet
  facet normal 0 1 -0
    outer loop
      vertex 3.92651 -0.249999 -11.38
      vertex 3.79018 -0.249999 -11.3361
      vertex 3.9732 -0.249999 -11.3768
    endloop
  endfacet
  facet normal 0 1 0
    outer loop
      vertex 3.79018 -0.249999 -11.3361
      vertex 3.92651 -0.249999 -11.38
      vertex 3.81548 -0.249999 -11.3519
    endloop
  endfacet
  facet normal 0 1 0
    outer loop
      vertex 3.81548 -0.249999 -11.3519
      vertex 3.92651 -0.249999 -11.38
      vertex 3.84177 -0.249999 -11.3642
    endloop
  endfacet
  facet normal 0 1 0
    outer loop
      vertex 3.84177 -0.249999 -11.3642
      vertex 3.92651 -0.249999 -11.38
      vertex 3.86904 -0.249999 -11.373
    endloop
  endfacet
  facet normal 0 1 0
    outer loop
      vertex 3.86904 -0.249999 -11.373
      vertex 3.92651 -0.249999 -11.38
      vertex 3.89729 -0.249999 -11.3783
    endloop
  endfacet
  facet normal 0.991247 0 -0.13202
    outer loop
      vertex 3.6674 -0.249999 -11.0394
      vertex 3.66374 -1.3553e-15 -11.0668
      vertex 3.6674 -1.35193e-15 -11.0394
    endloop
  endfacet
  facet normal 0.991247 0 -0.13202
    outer loop
      vertex 3.66374 -1.3553e-15 -11.0668
      vertex 3.6674 -0.249999 -11.0394
      vertex 3.66374 -0.249999 -11.0668
    endloop
  endfacet
  facet normal 0.972917 0 -0.231154
    outer loop
      vertex 3.67353 -0.249999 -11.0135
      vertex 3.6674 -1.35193e-15 -11.0394
      vertex 3.67353 -1.34877e-15 -11.0135
    endloop
  endfacet
  facet normal 0.972917 0 -0.231154
    outer loop
      vertex 3.6674 -1.35193e-15 -11.0394
      vertex 3.67353 -0.249999 -11.0135
      vertex 3.6674 -0.249999 -11.0394
    endloop
  endfacet
  facet normal 0.942494 0 -0.334222
    outer loop
      vertex 3.68209 -0.249999 -10.9894
      vertex 3.67353 -1.34877e-15 -11.0135
      vertex 3.68209 -1.34581e-15 -10.9894
    endloop
  endfacet
  facet normal 0.942494 0 -0.334222
    outer loop
      vertex 3.67353 -1.34877e-15 -11.0135
      vertex 3.68209 -0.249999 -10.9894
      vertex 3.67353 -0.249999 -11.0135
    endloop
  endfacet
  facet normal 0.897694 0 -0.44062
    outer loop
      vertex 3.69312 -0.249999 -10.9669
      vertex 3.68209 -1.34581e-15 -10.9894
      vertex 3.69312 -1.34306e-15 -10.9669
    endloop
  endfacet
  facet normal 0.897694 0 -0.44062
    outer loop
      vertex 3.68209 -1.34581e-15 -10.9894
      vertex 3.69312 -0.249999 -10.9669
      vertex 3.68209 -0.249999 -10.9894
    endloop
  endfacet
  facet normal 0.839372 0 -0.543558
    outer loop
      vertex 3.70658 -0.249999 -10.9461
      vertex 3.69312 -1.34306e-15 -10.9669
      vertex 3.70658 -1.34052e-15 -10.9461
    endloop
  endfacet
  facet normal 0.839372 0 -0.543558
    outer loop
      vertex 3.69312 -1.34306e-15 -10.9669
      vertex 3.70658 -0.249999 -10.9461
      vertex 3.69312 -0.249999 -10.9669
    endloop
  endfacet
  facet normal 0.768523 0 -0.639823
    outer loop
      vertex 3.72251 -0.249999 -10.927
      vertex 3.70658 -1.34052e-15 -10.9461
      vertex 3.72251 -1.33817e-15 -10.927
    endloop
  endfacet
  facet normal 0.768523 0 -0.639823
    outer loop
      vertex 3.70658 -1.34052e-15 -10.9461
      vertex 3.72251 -0.249999 -10.927
      vertex 3.70658 -0.249999 -10.9461
    endloop
  endfacet
  facet normal 0.690558 0 -0.723277
    outer loop
      vertex 3.72251 -0.249999 -10.927
      vertex 3.74174 -1.33592e-15 -10.9086
      vertex 3.74174 -0.249999 -10.9086
    endloop
  endfacet
  facet normal 0.690558 0 -0.723277
    outer loop
      vertex 3.74174 -1.33592e-15 -10.9086
      vertex 3.72251 -0.249999 -10.927
      vertex 3.72251 -1.33817e-15 -10.927
    endloop
  endfacet
  facet normal 0.618587 0 -0.785716
    outer loop
      vertex 3.74174 -0.249999 -10.9086
      vertex 3.76455 -1.33372e-15 -10.8907
      vertex 3.76455 -0.249999 -10.8907
    endloop
  endfacet
  facet normal 0.618587 0 -0.785716
    outer loop
      vertex 3.76455 -1.33372e-15 -10.8907
      vertex 3.74174 -0.249999 -10.9086
      vertex 3.74174 -1.33592e-15 -10.9086
    endloop
  endfacet
  facet normal 0.553701 0 -0.832716
    outer loop
      vertex 3.76455 -0.249999 -10.8907
      vertex 3.79096 -1.33157e-15 -10.8731
      vertex 3.79096 -0.249999 -10.8731
    endloop
  endfacet
  facet normal 0.553701 0 -0.832716
    outer loop
      vertex 3.79096 -1.33157e-15 -10.8731
      vertex 3.76455 -0.249999 -10.8907
      vertex 3.76455 -1.33372e-15 -10.8907
    endloop
  endfacet
  facet normal 0.495996 0 -0.868325
    outer loop
      vertex 3.79096 -0.249999 -10.8731
      vertex 3.82096 -1.32948e-15 -10.856
      vertex 3.82096 -0.249999 -10.856
    endloop
  endfacet
  facet normal 0.495996 0 -0.868325
    outer loop
      vertex 3.82096 -1.32948e-15 -10.856
      vertex 3.79096 -0.249999 -10.8731
      vertex 3.79096 -1.33157e-15 -10.8731
    endloop
  endfacet
  facet normal 0.423302 0 -0.905988
    outer loop
      vertex 3.82096 -0.249999 -10.856
      vertex 3.89173 -1.32543e-15 -10.8229
      vertex 3.89173 -0.249999 -10.8229
    endloop
  endfacet
  facet normal 0.423302 0 -0.905988
    outer loop
      vertex 3.89173 -1.32543e-15 -10.8229
      vertex 3.82096 -0.249999 -10.856
      vertex 3.82096 -1.32948e-15 -10.856
    endloop
  endfacet
  facet normal 0.363624 0 -0.931546
    outer loop
      vertex 3.89173 -0.249999 -10.8229
      vertex 3.9325 -1.32348e-15 -10.807
      vertex 3.9325 -0.249999 -10.807
    endloop
  endfacet
  facet normal 0.363624 0 -0.931546
    outer loop
      vertex 3.9325 -1.32348e-15 -10.807
      vertex 3.89173 -0.249999 -10.8229
      vertex 3.89173 -1.32543e-15 -10.8229
    endloop
  endfacet
  facet normal 0.320789 0 -0.947151
    outer loop
      vertex 3.9325 -0.249999 -10.807
      vertex 6.54849 -1.21497e-15 -9.92101
      vertex 6.54849 -0.25 -9.92101
    endloop
  endfacet
  facet normal 0.320789 0 -0.947151
    outer loop
      vertex 6.54849 -1.21497e-15 -9.92101
      vertex 3.9325 -0.249999 -10.807
      vertex 3.9325 -1.32348e-15 -10.807
    endloop
  endfacet
  facet normal 0 0 -1
    outer loop
      vertex 6.54849 -0.25 -9.92101
      vertex 7.0995 -1.21497e-15 -9.92101
      vertex 7.0995 -0.25 -9.92101
    endloop
  endfacet
  facet normal -0 0 -1
    outer loop
      vertex 7.0995 -1.21497e-15 -9.92101
      vertex 6.54849 -0.25 -9.92101
      vertex 6.54849 -1.21497e-15 -9.92101
    endloop
  endfacet
  facet normal -1 0 0
    outer loop
      vertex 7.0995 -0.25 -12.332
      vertex 7.0995 -1.21497e-15 -9.92101
      vertex 7.0995 -1.51023e-15 -12.332
    endloop
  endfacet
  facet normal -1 -0 0
    outer loop
      vertex 7.0995 -1.21497e-15 -9.92101
      vertex 7.0995 -0.25 -12.332
      vertex 7.0995 -0.25 -9.92101
    endloop
  endfacet
  facet normal -0 0 1
    outer loop
      vertex 6.60949 -1.51023e-15 -12.332
      vertex 7.0995 -0.25 -12.332
      vertex 7.0995 -1.51023e-15 -12.332
    endloop
  endfacet
  facet normal 0 0 1
    outer loop
      vertex 7.0995 -0.25 -12.332
      vertex 6.60949 -1.51023e-15 -12.332
      vertex 6.60949 -0.25 -12.332
    endloop
  endfacet
  facet normal 0.0580433 0 0.998314
    outer loop
      vertex 6.51212 -1.50954e-15 -12.3263
      vertex 6.60949 -0.25 -12.332
      vertex 6.60949 -1.51023e-15 -12.332
    endloop
  endfacet
  facet normal 0.0580433 0 0.998314
    outer loop
      vertex 6.60949 -0.25 -12.332
      vertex 6.51212 -1.50954e-15 -12.3263
      vertex 6.51212 -0.25 -12.3263
    endloop
  endfacet
  facet normal 0.202426 0 0.979298
    outer loop
      vertex 6.42974 -1.50746e-15 -12.3093
      vertex 6.51212 -0.25 -12.3263
      vertex 6.51212 -1.50954e-15 -12.3263
    endloop
  endfacet
  facet normal 0.202426 0 0.979298
    outer loop
      vertex 6.51212 -0.25 -12.3263
      vertex 6.42974 -1.50746e-15 -12.3093
      vertex 6.42974 -0.25 -12.3093
    endloop
  endfacet
  facet normal 0.387842 0 0.921726
    outer loop
      vertex 6.36233 -1.50398e-15 -12.2809
      vertex 6.42974 -0.25 -12.3093
      vertex 6.42974 -1.50746e-15 -12.3093
    endloop
  endfacet
  facet normal 0.387842 0 0.921726
    outer loop
      vertex 6.42974 -0.25 -12.3093
      vertex 6.36233 -1.50398e-15 -12.2809
      vertex 6.36233 -0.25 -12.2809
    endloop
  endfacet
  facet normal 0.603853 0 0.797096
    outer loop
      vertex 6.3099 -1.49912e-15 -12.2412
      vertex 6.36233 -0.25 -12.2809
      vertex 6.36233 -1.50398e-15 -12.2809
    endloop
  endfacet
  facet normal 0.603853 0 0.797096
    outer loop
      vertex 6.36233 -0.25 -12.2809
      vertex 6.3099 -1.49912e-15 -12.2412
      vertex 6.3099 -0.25 -12.2412
    endloop
  endfacet
  facet normal 0.806374 -0 0.591405
    outer loop
      vertex 6.27245 -0.25 -12.1902
      vertex 6.3099 -1.49912e-15 -12.2412
      vertex 6.27245 -1.49287e-15 -12.1902
    endloop
  endfacet
  facet normal 0.806374 0 0.591405
    outer loop
      vertex 6.3099 -1.49912e-15 -12.2412
      vertex 6.27245 -0.25 -12.1902
      vertex 6.3099 -0.25 -12.2412
    endloop
  endfacet
  facet normal 0.940843 -0 0.338842
    outer loop
      vertex 6.24998 -0.25 -12.1278
      vertex 6.27245 -1.49287e-15 -12.1902
      vertex 6.24998 -1.48522e-15 -12.1278
    endloop
  endfacet
  facet normal 0.940843 0 0.338842
    outer loop
      vertex 6.27245 -1.49287e-15 -12.1902
      vertex 6.24998 -0.25 -12.1278
      vertex 6.27245 -0.25 -12.1902
    endloop
  endfacet
  facet normal 0.994881 -0 0.101052
    outer loop
      vertex 6.24249 -0.25 -12.054
      vertex 6.24998 -1.48522e-15 -12.1278
      vertex 6.24249 -1.47619e-15 -12.054
    endloop
  endfacet
  facet normal 0.994881 0 0.101052
    outer loop
      vertex 6.24998 -1.48522e-15 -12.1278
      vertex 6.24249 -0.25 -12.054
      vertex 6.24998 -0.25 -12.1278
    endloop
  endfacet
  facet normal 0.995852 0 -0.0909847
    outer loop
      vertex 6.24862 -0.25 -11.9869
      vertex 6.24249 -1.47619e-15 -12.054
      vertex 6.24862 -1.46797e-15 -11.9869
    endloop
  endfacet
  facet normal 0.995852 0 -0.0909847
    outer loop
      vertex 6.24249 -1.47619e-15 -12.054
      vertex 6.24862 -0.25 -11.9869
      vertex 6.24249 -0.25 -12.054
    endloop
  endfacet
  facet normal 0.953389 0 -0.301744
    outer loop
      vertex 6.26698 -0.25 -11.9289
      vertex 6.24862 -1.46797e-15 -11.9869
      vertex 6.26698 -1.46086e-15 -11.9289
    endloop
  endfacet
  facet normal 0.953389 0 -0.301744
    outer loop
      vertex 6.24862 -1.46797e-15 -11.9869
      vertex 6.26698 -0.25 -11.9289
      vertex 6.24862 -0.25 -11.9869
    endloop
  endfacet
  facet normal 0.847314 0 -0.531093
    outer loop
      vertex 6.2976 -0.25 -11.88
      vertex 6.26698 -1.46086e-15 -11.9289
      vertex 6.2976 -1.45488e-15 -11.88
    endloop
  endfacet
  facet normal 0.847314 0 -0.531093
    outer loop
      vertex 6.26698 -1.46086e-15 -11.9289
      vertex 6.2976 -0.25 -11.88
      vertex 6.26698 -0.25 -11.9289
    endloop
  endfacet
  facet normal 0.67983 0 -0.73337
    outer loop
      vertex 6.2976 -0.25 -11.88
      vertex 6.34045 -1.45002e-15 -11.8403
      vertex 6.34045 -0.25 -11.8403
    endloop
  endfacet
  facet normal 0.67983 0 -0.73337
    outer loop
      vertex 6.34045 -1.45002e-15 -11.8403
      vertex 6.2976 -0.25 -11.88
      vertex 6.2976 -1.45488e-15 -11.88
    endloop
  endfacet
  facet normal 0.485067 0 -0.874477
    outer loop
      vertex 6.34045 -0.25 -11.8403
      vertex 6.39555 -1.44627e-15 -11.8097
      vertex 6.39555 -0.25 -11.8097
    endloop
  endfacet
  facet normal 0.485067 0 -0.874477
    outer loop
      vertex 6.39555 -1.44627e-15 -11.8097
      vertex 6.34045 -0.25 -11.8403
      vertex 6.34045 -1.45002e-15 -11.8403
    endloop
  endfacet
  facet normal 0.303115 0 -0.952954
    outer loop
      vertex 6.39555 -0.25 -11.8097
      vertex 6.4629 -1.44365e-15 -11.7883
      vertex 6.4629 -0.25 -11.7883
    endloop
  endfacet
  facet normal 0.303115 0 -0.952954
    outer loop
      vertex 6.4629 -1.44365e-15 -11.7883
      vertex 6.39555 -0.25 -11.8097
      vertex 6.39555 -1.44627e-15 -11.8097
    endloop
  endfacet
  facet normal 0.152712 0 -0.988271
    outer loop
      vertex 6.4629 -0.25 -11.7883
      vertex 6.54249 -1.44214e-15 -11.776
      vertex 6.54249 -0.25 -11.776
    endloop
  endfacet
  facet normal 0.152712 0 -0.988271
    outer loop
      vertex 6.54249 -1.44214e-15 -11.776
      vertex 6.4629 -0.25 -11.7883
      vertex 6.4629 -1.44365e-15 -11.7883
    endloop
  endfacet
  facet normal 1 -0 0
    outer loop
      vertex 6.54249 -0.25 -10.506
      vertex 6.54249 -1.44214e-15 -11.776
      vertex 6.54249 -1.28662e-15 -10.506
    endloop
  endfacet
  facet normal 1 0 0
    outer loop
      vertex 6.54249 -1.44214e-15 -11.776
      vertex 6.54249 -0.25 -10.506
      vertex 6.54249 -0.25 -11.776
    endloop
  endfacet
  facet normal -0.325012 0 0.94571
    outer loop
      vertex 4.08276 -1.39014e-15 -11.3513
      vertex 6.54249 -0.25 -10.506
      vertex 6.54249 -1.28662e-15 -10.506
    endloop
  endfacet
  facet normal -0.325012 0 0.94571
    outer loop
      vertex 6.54249 -0.25 -10.506
      vertex 4.08276 -1.39014e-15 -11.3513
      vertex 4.08276 -0.249999 -11.3513
    endloop
  endfacet
  facet normal -0.267076 0 0.963675
    outer loop
      vertex 4.02528 -1.39209e-15 -11.3673
      vertex 4.08276 -0.249999 -11.3513
      vertex 4.08276 -1.39014e-15 -11.3513
    endloop
  endfacet
  facet normal -0.267076 0 0.963675
    outer loop
      vertex 4.08276 -0.249999 -11.3513
      vertex 4.02528 -1.39209e-15 -11.3673
      vertex 4.02528 -0.249999 -11.3673
    endloop
  endfacet
  facet normal -0.180407 0 0.983592
    outer loop
      vertex 3.9732 -1.39326e-15 -11.3768
      vertex 4.02528 -0.249999 -11.3673
      vertex 4.02528 -1.39209e-15 -11.3673
    endloop
  endfacet
  facet normal -0.180407 0 0.983592
    outer loop
      vertex 4.02528 -0.249999 -11.3673
      vertex 3.9732 -1.39326e-15 -11.3768
      vertex 3.9732 -0.249999 -11.3768
    endloop
  endfacet
  facet normal -0.0678174 0 0.997698
    outer loop
      vertex 3.92651 -1.39365e-15 -11.38
      vertex 3.9732 -0.249999 -11.3768
      vertex 3.9732 -1.39326e-15 -11.3768
    endloop
  endfacet
  facet normal -0.0678174 0 0.997698
    outer loop
      vertex 3.9732 -0.249999 -11.3768
      vertex 3.92651 -1.39365e-15 -11.38
      vertex 3.92651 -0.249999 -11.38
    endloop
  endfacet
  facet normal 0.0599442 0 0.998202
    outer loop
      vertex 3.89729 -1.39343e-15 -11.3783
      vertex 3.92651 -0.249999 -11.38
      vertex 3.92651 -1.39365e-15 -11.38
    endloop
  endfacet
  facet normal 0.0599442 0 0.998202
    outer loop
      vertex 3.92651 -0.249999 -11.38
      vertex 3.89729 -1.39343e-15 -11.3783
      vertex 3.89729 -0.249999 -11.3783
    endloop
  endfacet
  facet normal 0.18323 0 0.98307
    outer loop
      vertex 3.86904 -1.39279e-15 -11.373
      vertex 3.89729 -0.249999 -11.3783
      vertex 3.89729 -1.39343e-15 -11.3783
    endloop
  endfacet
  facet normal 0.18323 0 0.98307
    outer loop
      vertex 3.89729 -0.249999 -11.3783
      vertex 3.86904 -1.39279e-15 -11.373
      vertex 3.86904 -0.249999 -11.373
    endloop
  endfacet
  facet normal 0.306302 0 0.951934
    outer loop
      vertex 3.84177 -1.39171e-15 -11.3642
      vertex 3.86904 -0.249999 -11.373
      vertex 3.86904 -1.39279e-15 -11.373
    endloop
  endfacet
  facet normal 0.306302 0 0.951934
    outer loop
      vertex 3.86904 -0.249999 -11.373
      vertex 3.84177 -1.39171e-15 -11.3642
      vertex 3.84177 -0.249999 -11.3642
    endloop
  endfacet
  facet normal 0.423288 0 0.905995
    outer loop
      vertex 3.81548 -1.39021e-15 -11.3519
      vertex 3.84177 -0.249999 -11.3642
      vertex 3.84177 -1.39171e-15 -11.3642
    endloop
  endfacet
  facet normal 0.423288 0 0.905995
    outer loop
      vertex 3.84177 -0.249999 -11.3642
      vertex 3.81548 -1.39021e-15 -11.3519
      vertex 3.81548 -0.249999 -11.3519
    endloop
  endfacet
  facet normal 0.529539 0 0.848286
    outer loop
      vertex 3.79018 -1.38828e-15 -11.3361
      vertex 3.81548 -0.249999 -11.3519
      vertex 3.81548 -1.39021e-15 -11.3519
    endloop
  endfacet
  facet normal 0.529539 0 0.848286
    outer loop
      vertex 3.81548 -0.249999 -11.3519
      vertex 3.79018 -1.38828e-15 -11.3361
      vertex 3.79018 -0.249999 -11.3361
    endloop
  endfacet
  facet normal 0.621696 0 0.783259
    outer loop
      vertex 3.76585 -1.38591e-15 -11.3168
      vertex 3.79018 -0.249999 -11.3361
      vertex 3.79018 -1.38828e-15 -11.3361
    endloop
  endfacet
  facet normal 0.621696 0 0.783259
    outer loop
      vertex 3.79018 -0.249999 -11.3361
      vertex 3.76585 -1.38591e-15 -11.3168
      vertex 3.76585 -0.249999 -11.3168
    endloop
  endfacet
  facet normal 0.698879 0 0.71524
    outer loop
      vertex 3.7425 -1.38312e-15 -11.294
      vertex 3.76585 -0.249999 -11.3168
      vertex 3.76585 -1.38591e-15 -11.3168
    endloop
  endfacet
  facet normal 0.698879 0 0.71524
    outer loop
      vertex 3.76585 -0.249999 -11.3168
      vertex 3.7425 -1.38312e-15 -11.294
      vertex 3.7425 -0.249999 -11.294
    endloop
  endfacet
  facet normal 0.763598 -0 0.645693
    outer loop
      vertex 3.72128 -0.249999 -11.2689
      vertex 3.7425 -1.38312e-15 -11.294
      vertex 3.72128 -1.38004e-15 -11.2689
    endloop
  endfacet
  facet normal 0.763598 0 0.645693
    outer loop
      vertex 3.7425 -1.38312e-15 -11.294
      vertex 3.72128 -0.249999 -11.2689
      vertex 3.7425 -0.249999 -11.294
    endloop
  endfacet
  facet normal 0.824505 -0 0.565855
    outer loop
      vertex 3.70332 -0.249999 -11.2427
      vertex 3.72128 -1.38004e-15 -11.2689
      vertex 3.70332 -1.37684e-15 -11.2427
    endloop
  endfacet
  facet normal 0.824505 0 0.565855
    outer loop
      vertex 3.72128 -1.38004e-15 -11.2689
      vertex 3.70332 -0.249999 -11.2427
      vertex 3.72128 -0.249999 -11.2689
    endloop
  endfacet
  facet normal 0.87998 -0 0.475011
    outer loop
      vertex 3.68862 -0.249999 -11.2155
      vertex 3.70332 -1.37684e-15 -11.2427
      vertex 3.68862 -1.3735e-15 -11.2155
    endloop
  endfacet
  facet normal 0.87998 0 0.475011
    outer loop
      vertex 3.70332 -1.37684e-15 -11.2427
      vertex 3.68862 -0.249999 -11.2155
      vertex 3.70332 -0.249999 -11.2427
    endloop
  endfacet
  facet normal 0.927195 -0 0.374579
    outer loop
      vertex 3.67719 -0.249999 -11.1872
      vertex 3.68862 -1.3735e-15 -11.2155
      vertex 3.67719 -1.37004e-15 -11.1872
    endloop
  endfacet
  facet normal 0.927195 0 0.374579
    outer loop
      vertex 3.68862 -1.3735e-15 -11.2155
      vertex 3.67719 -0.249999 -11.1872
      vertex 3.68862 -0.249999 -11.2155
    endloop
  endfacet
  facet normal 0.96341 -0 0.268031
    outer loop
      vertex 3.66903 -0.249999 -11.1579
      vertex 3.67719 -1.37004e-15 -11.1872
      vertex 3.66903 -1.36645e-15 -11.1579
    endloop
  endfacet
  facet normal 0.96341 0 0.268031
    outer loop
      vertex 3.67719 -1.37004e-15 -11.1872
      vertex 3.66903 -0.249999 -11.1579
      vertex 3.67719 -0.249999 -11.1872
    endloop
  endfacet
  facet normal 0.987276 -0 0.159014
    outer loop
      vertex 3.66413 -0.249999 -11.1275
      vertex 3.66903 -1.36645e-15 -11.1579
      vertex 3.66413 -1.36272e-15 -11.1275
    endloop
  endfacet
  facet normal 0.987276 0 0.159014
    outer loop
      vertex 3.66903 -1.36645e-15 -11.1579
      vertex 3.66413 -0.249999 -11.1275
      vertex 3.66903 -0.249999 -11.1579
    endloop
  endfacet
  facet normal 0.998656 -0 0.0518216
    outer loop
      vertex 3.6625 -0.249999 -11.096
      vertex 3.66413 -1.36272e-15 -11.1275
      vertex 3.6625 -1.35887e-15 -11.096
    endloop
  endfacet
  facet normal 0.998656 0 0.0518216
    outer loop
      vertex 3.66413 -1.36272e-15 -11.1275
      vertex 3.6625 -0.249999 -11.096
      vertex 3.66413 -0.249999 -11.1275
    endloop
  endfacet
  facet normal 0.999103 0 -0.0423482
    outer loop
      vertex 3.66374 -0.249999 -11.0668
      vertex 3.6625 -1.35887e-15 -11.096
      vertex 3.66374 -1.3553e-15 -11.0668
    endloop
  endfacet
  facet normal 0.999103 0 -0.0423482
    outer loop
      vertex 3.6625 -1.35887e-15 -11.096
      vertex 3.66374 -0.249999 -11.0668
      vertex 3.6625 -0.249999 -11.096
    endloop
  endfacet
  facet normal 0 0.951056 -0.309018
    outer loop
      vertex 8.025 -6.14045 -2.73625
      vertex 2.675 -6.06283 -2.49738
      vertex 8.025 -6.06283 -2.49738
    endloop
  endfacet
  facet normal 0 0.951056 -0.309018
    outer loop
      vertex 2.675 -6.06283 -2.49738
      vertex 8.025 -6.14045 -2.73625
      vertex 2.675 -6.14045 -2.73625
    endloop
  endfacet
  facet normal 0 0.368128 -0.929775
    outer loop
      vertex 2.675 -7.38197 -3.90211
      vertex 8.025 -7.14844 -3.80965
      vertex 8.025 -7.38197 -3.90211
    endloop
  endfacet
  facet normal 0 0.368128 -0.929775
    outer loop
      vertex 8.025 -7.14844 -3.80965
      vertex 2.675 -7.38197 -3.90211
      vertex 2.675 -7.14844 -3.80965
    endloop
  endfacet
  facet normal 0 0.904827 -0.425779
    outer loop
      vertex 8.025 -6.24739 -2.96351
      vertex 2.675 -6.14045 -2.73625
      vertex 8.025 -6.14045 -2.73625
    endloop
  endfacet
  facet normal 0 0.904827 -0.425779
    outer loop
      vertex 2.675 -6.14045 -2.73625
      vertex 8.025 -6.24739 -2.96351
      vertex 2.675 -6.24739 -2.96351
    endloop
  endfacet
  facet normal 0 0 -1
    outer loop
      vertex 2.675 -8 -3.99605
      vertex 8.025 -7.87442 -3.99605
      vertex 8.025 -8 -3.99605
    endloop
  endfacet
  facet normal -0 0 -1
    outer loop
      vertex 8.025 -7.87442 -3.99605
      vertex 2.675 -8 -3.99605
      vertex 2.675 -7.87442 -3.99605
    endloop
  endfacet
  facet normal 0 0.770514 -0.637423
    outer loop
      vertex 8.025 -6.54206 -3.36909
      vertex 2.675 -6.38197 -3.17557
      vertex 8.025 -6.38197 -3.17557
    endloop
  endfacet
  facet normal 0 0.770514 -0.637423
    outer loop
      vertex 2.675 -6.38197 -3.17557
      vertex 8.025 -6.54206 -3.36909
      vertex 2.675 -6.54206 -3.36909
    endloop
  endfacet
  facet normal 0 0.481753 -0.876307
    outer loop
      vertex 2.675 -7.14844 -3.80965
      vertex 8.025 -6.92835 -3.68865
      vertex 8.025 -7.14844 -3.80965
    endloop
  endfacet
  facet normal 0 0.481753 -0.876307
    outer loop
      vertex 8.025 -6.92835 -3.68865
      vertex 2.675 -7.14844 -3.80965
      vertex 2.675 -6.92835 -3.68865
    endloop
  endfacet
  facet normal 0 0.587785 -0.809017
    outer loop
      vertex 2.675 -6.92835 -3.68865
      vertex 8.025 -6.72515 -3.54103
      vertex 8.025 -6.92835 -3.68865
    endloop
  endfacet
  facet normal 0 0.587785 -0.809017
    outer loop
      vertex 8.025 -6.72515 -3.54103
      vertex 2.675 -6.92835 -3.68865
      vertex 2.675 -6.72515 -3.54103
    endloop
  endfacet
  facet normal 0 0.998027 -0.062792
    outer loop
      vertex 8.025 -6.01577 -2.25067
      vertex 2.675 -6 -2
      vertex 8.025 -6 -2
    endloop
  endfacet
  facet normal 0 0.998027 -0.062792
    outer loop
      vertex 2.675 -6 -2
      vertex 8.025 -6.01577 -2.25067
      vertex 2.675 -6.01577 -2.25067
    endloop
  endfacet
  facet normal 0 0.982287 -0.18738
    outer loop
      vertex 8.025 -6.06283 -2.49738
      vertex 2.675 -6.01577 -2.25067
      vertex 8.025 -6.01577 -2.25067
    endloop
  endfacet
  facet normal 0 0.982287 -0.18738
    outer loop
      vertex 2.675 -6.01577 -2.25067
      vertex 8.025 -6.06283 -2.49738
      vertex 2.675 -6.06283 -2.49738
    endloop
  endfacet
  facet normal 0 0.844328 -0.535826
    outer loop
      vertex 8.025 -6.38197 -3.17557
      vertex 2.675 -6.24739 -2.96351
      vertex 8.025 -6.24739 -2.96351
    endloop
  endfacet
  facet normal 0 0.844328 -0.535826
    outer loop
      vertex 2.675 -6.24739 -2.96351
      vertex 8.025 -6.38197 -3.17557
      vertex 2.675 -6.38197 -3.17557
    endloop
  endfacet
  facet normal 0 0.125333 -0.992115
    outer loop
      vertex 2.675 -7.87442 -3.99605
      vertex 8.025 -7.62524 -3.96457
      vertex 8.025 -7.87442 -3.99605
    endloop
  endfacet
  facet normal 0 0.125333 -0.992115
    outer loop
      vertex 8.025 -7.62524 -3.96457
      vertex 2.675 -7.87442 -3.99605
      vertex 2.675 -7.62524 -3.96457
    endloop
  endfacet
  facet normal 0 0.248688 -0.968584
    outer loop
      vertex 2.675 -7.62524 -3.96457
      vertex 8.025 -7.38197 -3.90211
      vertex 8.025 -7.62524 -3.96457
    endloop
  endfacet
  facet normal 0 0.248688 -0.968584
    outer loop
      vertex 8.025 -7.38197 -3.90211
      vertex 2.675 -7.62524 -3.96457
      vertex 2.675 -7.38197 -3.90211
    endloop
  endfacet
  facet normal 0 0.684545 -0.72897
    outer loop
      vertex 2.675 -6.72515 -3.54103
      vertex 8.025 -6.54206 -3.36909
      vertex 8.025 -6.72515 -3.54103
    endloop
  endfacet
  facet normal 0 0.684545 -0.72897
    outer loop
      vertex 8.025 -6.54206 -3.36909
      vertex 2.675 -6.72515 -3.54103
      vertex 2.675 -6.54206 -3.36909
    endloop
  endfacet
  facet normal 0 0.844328 0.535826
    outer loop
      vertex 8.025 -6.24739 -1.03649
      vertex 2.675 -6.38197 -0.82443
      vertex 8.025 -6.38197 -0.82443
    endloop
  endfacet
  facet normal 0 0.844328 0.535826
    outer loop
      vertex 2.675 -6.38197 -0.82443
      vertex 8.025 -6.24739 -1.03649
      vertex 2.675 -6.24739 -1.03649
    endloop
  endfacet
  facet normal 0 0.904827 0.425779
    outer loop
      vertex 8.025 -6.14045 -1.26375
      vertex 2.675 -6.24739 -1.03649
      vertex 8.025 -6.24739 -1.03649
    endloop
  endfacet
  facet normal 0 0.904827 0.425779
    outer loop
      vertex 2.675 -6.24739 -1.03649
      vertex 8.025 -6.14045 -1.26375
      vertex 2.675 -6.14045 -1.26375
    endloop
  endfacet
  facet normal 1 0 0
    outer loop
      vertex 8.025 -6.01577 -1.74933
      vertex 8.025 -6.01577 -2.25067
      vertex 8.025 -6 -2
    endloop
  endfacet
  facet normal 1 0 0
    outer loop
      vertex 8.025 -6.06283 -1.50262
      vertex 8.025 -6.01577 -2.25067
      vertex 8.025 -6.01577 -1.74933
    endloop
  endfacet
  facet normal 1 0 0
    outer loop
      vertex 8.025 -6.06283 -1.50262
      vertex 8.025 -6.06283 -2.49738
      vertex 8.025 -6.01577 -2.25067
    endloop
  endfacet
  facet normal 1 0 0
    outer loop
      vertex 8.025 -6.14045 -1.26375
      vertex 8.025 -6.06283 -2.49738
      vertex 8.025 -6.06283 -1.50262
    endloop
  endfacet
  facet normal 1 0 0
    outer loop
      vertex 8.025 -6.14045 -1.26375
      vertex 8.025 -6.14045 -2.73625
      vertex 8.025 -6.06283 -2.49738
    endloop
  endfacet
  facet normal 1 0 0
    outer loop
      vertex 8.025 -6.24739 -1.03649
      vertex 8.025 -6.14045 -2.73625
      vertex 8.025 -6.14045 -1.26375
    endloop
  endfacet
  facet normal 1 0 0
    outer loop
      vertex 8.025 -6.24739 -1.03649
      vertex 8.025 -6.24739 -2.96351
      vertex 8.025 -6.14045 -2.73625
    endloop
  endfacet
  facet normal 1 0 0
    outer loop
      vertex 8.025 -6.38197 -0.82443
      vertex 8.025 -6.24739 -2.96351
      vertex 8.025 -6.24739 -1.03649
    endloop
  endfacet
  facet normal 1 0 0
    outer loop
      vertex 8.025 -6.38197 -0.82443
      vertex 8.025 -6.38197 -3.17557
      vertex 8.025 -6.24739 -2.96351
    endloop
  endfacet
  facet normal 1 0 0
    outer loop
      vertex 8.025 -6.54206 -0.630906
      vertex 8.025 -6.38197 -3.17557
      vertex 8.025 -6.38197 -0.82443
    endloop
  endfacet
  facet normal 1 0 0
    outer loop
      vertex 8.025 -6.54206 -0.630906
      vertex 8.025 -6.54206 -3.36909
      vertex 8.025 -6.38197 -3.17557
    endloop
  endfacet
  facet normal 1 0 0
    outer loop
      vertex 8.025 -6.72515 -0.458974
      vertex 8.025 -6.54206 -3.36909
      vertex 8.025 -6.54206 -0.630906
    endloop
  endfacet
  facet normal 1 0 0
    outer loop
      vertex 8.025 -6.72515 -0.458974
      vertex 8.025 -6.72515 -3.54103
      vertex 8.025 -6.54206 -3.36909
    endloop
  endfacet
  facet normal 1 0 0
    outer loop
      vertex 8.025 -6.92835 -0.311345
      vertex 8.025 -6.72515 -3.54103
      vertex 8.025 -6.72515 -0.458974
    endloop
  endfacet
  facet normal 1 0 0
    outer loop
      vertex 8.025 -6.92835 -0.311345
      vertex 8.025 -6.92835 -3.68865
      vertex 8.025 -6.72515 -3.54103
    endloop
  endfacet
  facet normal 1 0 0
    outer loop
      vertex 8.025 -7.14844 -0.190347
      vertex 8.025 -6.92835 -3.68865
      vertex 8.025 -6.92835 -0.311345
    endloop
  endfacet
  facet normal 1 0 0
    outer loop
      vertex 8.025 -7.14844 -0.190347
      vertex 8.025 -7.14844 -3.80965
      vertex 8.025 -6.92835 -3.68865
    endloop
  endfacet
  facet normal 1 0 0
    outer loop
      vertex 8.025 -7.38197 -0.097887
      vertex 8.025 -7.14844 -3.80965
      vertex 8.025 -7.14844 -0.190347
    endloop
  endfacet
  facet normal 1 0 0
    outer loop
      vertex 8.025 -7.38197 -0.097887
      vertex 8.025 -7.38197 -3.90211
      vertex 8.025 -7.14844 -3.80965
    endloop
  endfacet
  facet normal 1 0 0
    outer loop
      vertex 8.025 -8 -0.00394726
      vertex 8.025 -7.38197 -0.097887
      vertex 8.025 -7.62524 -0.0354261
    endloop
  endfacet
  facet normal 1 0 0
    outer loop
      vertex 8.025 -7.38197 -0.097887
      vertex 8.025 -8 -0.00394726
      vertex 8.025 -7.38197 -3.90211
    endloop
  endfacet
  facet normal 1 -0 0
    outer loop
      vertex 8.025 -8 -0.00394726
      vertex 8.025 -7.62524 -0.0354261
      vertex 8.025 -7.87442 -0.00394726
    endloop
  endfacet
  facet normal 1 0 0
    outer loop
      vertex 8.025 -8 -3.99605
      vertex 8.025 -7.38197 -3.90211
      vertex 8.025 -8 -0.00394726
    endloop
  endfacet
  facet normal 1 0 0
    outer loop
      vertex 8.025 -7.38197 -3.90211
      vertex 8.025 -8 -3.99605
      vertex 8.025 -7.62524 -3.96457
    endloop
  endfacet
  facet normal 1 0 0
    outer loop
      vertex 8.025 -7.62524 -3.96457
      vertex 8.025 -8 -3.99605
      vertex 8.025 -7.87442 -3.99605
    endloop
  endfacet
  facet normal -0 0 1
    outer loop
      vertex 2.675 -7.87442 -0.00394726
      vertex 8.025 -8 -0.00394726
      vertex 8.025 -7.87442 -0.00394726
    endloop
  endfacet
  facet normal 0 0 1
    outer loop
      vertex 8.025 -8 -0.00394726
      vertex 2.675 -7.87442 -0.00394726
      vertex 2.675 -8 -0.00394726
    endloop
  endfacet
  facet normal 0 0.998027 0.062792
    outer loop
      vertex 8.025 -6 -2
      vertex 2.675 -6.01577 -1.74933
      vertex 8.025 -6.01577 -1.74933
    endloop
  endfacet
  facet normal 0 0.998027 0.062792
    outer loop
      vertex 2.675 -6.01577 -1.74933
      vertex 8.025 -6 -2
      vertex 2.675 -6 -2
    endloop
  endfacet
  facet normal 0 0.951056 0.309018
    outer loop
      vertex 8.025 -6.06283 -1.50262
      vertex 2.675 -6.14045 -1.26375
      vertex 8.025 -6.14045 -1.26375
    endloop
  endfacet
  facet normal 0 0.951056 0.309018
    outer loop
      vertex 2.675 -6.14045 -1.26375
      vertex 8.025 -6.06283 -1.50262
      vertex 2.675 -6.06283 -1.50262
    endloop
  endfacet
  facet normal -0 0.684545 0.72897
    outer loop
      vertex 2.675 -6.54206 -0.630906
      vertex 8.025 -6.72515 -0.458974
      vertex 8.025 -6.54206 -0.630906
    endloop
  endfacet
  facet normal 0 0.684545 0.72897
    outer loop
      vertex 8.025 -6.72515 -0.458974
      vertex 2.675 -6.54206 -0.630906
      vertex 2.675 -6.72515 -0.458974
    endloop
  endfacet
  facet normal -0 0.248688 0.968584
    outer loop
      vertex 2.675 -7.38197 -0.097887
      vertex 8.025 -7.62524 -0.0354261
      vertex 8.025 -7.38197 -0.097887
    endloop
  endfacet
  facet normal 0 0.248688 0.968584
    outer loop
      vertex 8.025 -7.62524 -0.0354261
      vertex 2.675 -7.38197 -0.097887
      vertex 2.675 -7.62524 -0.0354261
    endloop
  endfacet
  facet normal -0 0.481753 0.876307
    outer loop
      vertex 2.675 -6.92835 -0.311345
      vertex 8.025 -7.14844 -0.190347
      vertex 8.025 -6.92835 -0.311345
    endloop
  endfacet
  facet normal 0 0.481753 0.876307
    outer loop
      vertex 8.025 -7.14844 -0.190347
      vertex 2.675 -6.92835 -0.311345
      vertex 2.675 -7.14844 -0.190347
    endloop
  endfacet
  facet normal -1 0 0
    outer loop
      vertex 2.675 -6.01577 -2.25067
      vertex 2.675 -6.01577 -1.74933
      vertex 2.675 -6 -2
    endloop
  endfacet
  facet normal -1 0 0
    outer loop
      vertex 2.675 -6.06283 -2.49738
      vertex 2.675 -6.01577 -1.74933
      vertex 2.675 -6.01577 -2.25067
    endloop
  endfacet
  facet normal -1 0 0
    outer loop
      vertex 2.675 -6.06283 -2.49738
      vertex 2.675 -6.06283 -1.50262
      vertex 2.675 -6.01577 -1.74933
    endloop
  endfacet
  facet normal -1 0 0
    outer loop
      vertex 2.675 -6.14045 -2.73625
      vertex 2.675 -6.06283 -1.50262
      vertex 2.675 -6.06283 -2.49738
    endloop
  endfacet
  facet normal -1 0 0
    outer loop
      vertex 2.675 -6.14045 -2.73625
      vertex 2.675 -6.14045 -1.26375
      vertex 2.675 -6.06283 -1.50262
    endloop
  endfacet
  facet normal -1 0 0
    outer loop
      vertex 2.675 -6.24739 -2.96351
      vertex 2.675 -6.14045 -1.26375
      vertex 2.675 -6.14045 -2.73625
    endloop
  endfacet
  facet normal -1 0 0
    outer loop
      vertex 2.675 -6.24739 -2.96351
      vertex 2.675 -6.24739 -1.03649
      vertex 2.675 -6.14045 -1.26375
    endloop
  endfacet
  facet normal -1 0 0
    outer loop
      vertex 2.675 -6.38197 -3.17557
      vertex 2.675 -6.24739 -1.03649
      vertex 2.675 -6.24739 -2.96351
    endloop
  endfacet
  facet normal -1 0 0
    outer loop
      vertex 2.675 -6.38197 -3.17557
      vertex 2.675 -6.38197 -0.82443
      vertex 2.675 -6.24739 -1.03649
    endloop
  endfacet
  facet normal -1 0 0
    outer loop
      vertex 2.675 -6.54206 -3.36909
      vertex 2.675 -6.38197 -0.82443
      vertex 2.675 -6.38197 -3.17557
    endloop
  endfacet
  facet normal -1 0 0
    outer loop
      vertex 2.675 -6.54206 -3.36909
      vertex 2.675 -6.54206 -0.630906
      vertex 2.675 -6.38197 -0.82443
    endloop
  endfacet
  facet normal -1 0 0
    outer loop
      vertex 2.675 -6.72515 -3.54103
      vertex 2.675 -6.54206 -0.630906
      vertex 2.675 -6.54206 -3.36909
    endloop
  endfacet
  facet normal -1 0 0
    outer loop
      vertex 2.675 -6.72515 -3.54103
      vertex 2.675 -6.72515 -0.458974
      vertex 2.675 -6.54206 -0.630906
    endloop
  endfacet
  facet normal -1 0 0
    outer loop
      vertex 2.675 -6.92835 -3.68865
      vertex 2.675 -6.72515 -0.458974
      vertex 2.675 -6.72515 -3.54103
    endloop
  endfacet
  facet normal -1 0 0
    outer loop
      vertex 2.675 -6.92835 -3.68865
      vertex 2.675 -6.92835 -0.311345
      vertex 2.675 -6.72515 -0.458974
    endloop
  endfacet
  facet normal -1 0 0
    outer loop
      vertex 2.675 -7.14844 -3.80965
      vertex 2.675 -6.92835 -0.311345
      vertex 2.675 -6.92835 -3.68865
    endloop
  endfacet
  facet normal -1 0 0
    outer loop
      vertex 2.675 -7.14844 -3.80965
      vertex 2.675 -7.14844 -0.190347
      vertex 2.675 -6.92835 -0.311345
    endloop
  endfacet
  facet normal -1 0 0
    outer loop
      vertex 2.675 -7.38197 -3.90211
      vertex 2.675 -7.14844 -0.190347
      vertex 2.675 -7.14844 -3.80965
    endloop
  endfacet
  facet normal -1 0 0
    outer loop
      vertex 2.675 -7.38197 -3.90211
      vertex 2.675 -7.38197 -0.097887
      vertex 2.675 -7.14844 -0.190347
    endloop
  endfacet
  facet normal -1 0 0
    outer loop
      vertex 2.675 -8 -3.99605
      vertex 2.675 -7.38197 -3.90211
      vertex 2.675 -7.62524 -3.96457
    endloop
  endfacet
  facet normal -1 -0 0
    outer loop
      vertex 2.675 -7.38197 -3.90211
      vertex 2.675 -8 -3.99605
      vertex 2.675 -7.38197 -0.097887
    endloop
  endfacet
  facet normal -1 0 0
    outer loop
      vertex 2.675 -8 -3.99605
      vertex 2.675 -7.62524 -3.96457
      vertex 2.675 -7.87442 -3.99605
    endloop
  endfacet
  facet normal -1 0 0
    outer loop
      vertex 2.675 -8 -0.00394726
      vertex 2.675 -7.38197 -0.097887
      vertex 2.675 -8 -3.99605
    endloop
  endfacet
  facet normal -1 0 0
    outer loop
      vertex 2.675 -7.38197 -0.097887
      vertex 2.675 -8 -0.00394726
      vertex 2.675 -7.62524 -0.0354261
    endloop
  endfacet
  facet normal -1 0 0
    outer loop
      vertex 2.675 -7.62524 -0.0354261
      vertex 2.675 -8 -0.00394726
      vertex 2.675 -7.87442 -0.00394726
    endloop
  endfacet
  facet normal 0 0.982287 0.18738
    outer loop
      vertex 8.025 -6.01577 -1.74933
      vertex 2.675 -6.06283 -1.50262
      vertex 8.025 -6.06283 -1.50262
    endloop
  endfacet
  facet normal 0 0.982287 0.18738
    outer loop
      vertex 2.675 -6.06283 -1.50262
      vertex 8.025 -6.01577 -1.74933
      vertex 2.675 -6.01577 -1.74933
    endloop
  endfacet
  facet normal 0 0.770514 0.637423
    outer loop
      vertex 8.025 -6.38197 -0.82443
      vertex 2.675 -6.54206 -0.630906
      vertex 8.025 -6.54206 -0.630906
    endloop
  endfacet
  facet normal 0 0.770514 0.637423
    outer loop
      vertex 2.675 -6.54206 -0.630906
      vertex 8.025 -6.38197 -0.82443
      vertex 2.675 -6.38197 -0.82443
    endloop
  endfacet
  facet normal -0 0.125333 0.992115
    outer loop
      vertex 2.675 -7.62524 -0.0354261
      vertex 8.025 -7.87442 -0.00394726
      vertex 8.025 -7.62524 -0.0354261
    endloop
  endfacet
  facet normal 0 0.125333 0.992115
    outer loop
      vertex 8.025 -7.87442 -0.00394726
      vertex 2.675 -7.62524 -0.0354261
      vertex 2.675 -7.87442 -0.00394726
    endloop
  endfacet
  facet normal -0 0.587785 0.809017
    outer loop
      vertex 2.675 -6.72515 -0.458974
      vertex 8.025 -6.92835 -0.311345
      vertex 8.025 -6.72515 -0.458974
    endloop
  endfacet
  facet normal 0 0.587785 0.809017
    outer loop
      vertex 8.025 -6.92835 -0.311345
      vertex 2.675 -6.72515 -0.458974
      vertex 2.675 -6.92835 -0.311345
    endloop
  endfacet
  facet normal -0 0.368128 0.929775
    outer loop
      vertex 2.675 -7.14844 -0.190347
      vertex 8.025 -7.38197 -0.097887
      vertex 8.025 -7.14844 -0.190347
    endloop
  endfacet
  facet normal 0 0.368128 0.929775
    outer loop
      vertex 8.025 -7.38197 -0.097887
      vertex 2.675 -7.14844 -0.190347
      vertex 2.675 -7.38197 -0.097887
    endloop
  endfacet
  facet normal 0 -1 0
    outer loop
      vertex 2.675 -8 -3.99605
      vertex 8.025 -8 -0.00394726
      vertex 2.675 -8 -0.00394726
    endloop
  endfacet
  facet normal 0 -1 -0
    outer loop
      vertex 8.025 -8 -0.00394726
      vertex 2.675 -8 -3.99605
      vertex 8.025 -8 -3.99605
    endloop
  endfacet
endsolid OpenSCAD_Model
